<?xml version="1.0" encoding="utf-8"?>
<!-- Generator: Adobe Illustrator 15.1.0, SVG Export Plug-In . SVG Version: 6.00 Build 0)  -->
<!DOCTYPE svg PUBLIC "-//W3C//DTD SVG 1.1//EN" "http://www.w3.org/Graphics/SVG/1.1/DTD/svg11.dtd">
<svg version="1.1" id="Layer_1" xmlns="http://www.w3.org/2000/svg" xmlns:xlink="http://www.w3.org/1999/xlink" x="0px" y="0px"
	 width="325.312px" height="326.667px" viewBox="0 0 325.312 326.667" enable-background="new 0 0 325.312 326.667"
	 xml:space="preserve">
<path fill="#FFFFFF" d="M116.6,308.781c0,0,49.352,20.48,108.148-5.236C228.544,290.328,206.542,282,206.542,282H128L116.6,308.781z
	"/>
<path fill="none" d="M159.268,280.394c0.002,0.001-0.024,0.002-0.022,0.003l-0.052,0.017c0.002,0.001,0.051,0.001,0.053,0.002
	c0.068,0.025,0.185,0.046,0.253,0.07c0.33,0.145,0.648,0.31,0.984,0.338c0.033,0.011,0.037,0.023,0.069,0.033
	c0.175,1.853,0.288,3.71,0.426,5.565l0.111,0.37c0.801,10.362,1.265,20.624,1.265,29.379c0-8.755-0.464-19.024-1.265-29.387
	l4.144,14.472l-4.12-14.464c-0.153-1.979-0.32-3.962-0.507-5.938c1.078,0.33,2.193,0.65,3.333,0.817
	c-1.139-0.174-2.255-0.671-3.333-0.671c-0.001,0-0.001,0-0.002,0c-0.031,0-0.063-0.092-0.094-0.096
	c-0.335-0.027-0.668-0.233-0.997-0.378c-0.071-0.031-0.142-0.084-0.212-0.109c-0.001-0.001-0.003-0.013-0.005-0.014l-0.004-0.024
	l-0.008-0.041c-2.226-0.831-4.289-2.121-6.133-3.428c1.847,1.309,3.898,2.633,6.127,3.465L159.268,280.394z"/>
<path fill="none" d="M134.123,277.731c-0.959,2.615-1.95,5.258-2.96,7.906c-0.007,0.02-0.015,0.039-0.022,0.058
	c0.055-0.05,0.114-0.096,0.169-0.146C132.306,282.931,133.174,280.318,134.123,277.731z"/>
<path fill="none" d="M171.85,280.978c-0.009,0.128-0.018,0.265-0.027,0.418c-0.003,0.033-0.004,0.061-0.006,0.097
	c0.002-0.036,0.019-0.063,0.021-0.097c0.009-0.153,0.033-0.29,0.042-0.418c0.001-0.012,0.032-0.021,0.033-0.032
	c0.019-0.257,0.064-0.482,0.101-0.715l-0.048,0.094l-0.093,0.283c-0.006,0.109-0.013,0.217-0.019,0.338
	C171.852,280.957,171.851,280.966,171.85,280.978z"/>
<path fill="none" d="M149.487,243.759c0.123-0.948,0.225-1.853,0.295-2.726c-0.076,0.818-0.18,1.669-0.296,2.564
	c-0.711,0.854-1.135,1.747-1.72,2.697l0.234-0.021c0,0.019,0,0.038,0,0.039c-3,3.554-4,7.729-4,12.204c0,0.003,0,0.006,0,0.01
	c0-4.475,1.313-8.658,3.502-12.212l1.173,7.18c0.018,4.048,0.568,8.842,2.315,14.683l1.262,8.051l-0.012,0.041l0.031-0.041
	c0.002,0.002,0.005,0.004,0.007,0.006l0.007,0.041c0.077,0.065,0.157,0.127,0.234,0.19c-0.081-0.084-0.161-0.168-0.241-0.236
	l-1.274-8.043c-0.001-0.002-0.002-0.006-0.003-0.009c-1.747-5.841-2.299-10.635-2.316-14.683l-1.132-7.18
	c0.585-0.95,1.236-1.854,1.947-2.708c-0.363,2.797-0.831,6.001-0.815,9.888c-0.016-3.887,0.452-6.939,0.815-9.736
	c0.492-0.591,1.012-1.546,1.559-1.546C150.513,242.213,149.979,243.168,149.487,243.759z"/>
<polygon fill="none" points="149.262,235.056 149.262,235.057 149.264,235.057 "/>
<path fill="none" d="M132.681,284.11c0.043-0.025,0.09-0.084,0.133-0.109c0.004-0.003,0.009-0.005,0.014-0.008
	c0.73-2.136,1.433-4.264,2.095-6.366c-0.018,0.002-0.105,0.005-0.123,0.007c-0.246,0.028-0.8,0.06-0.8,0.095
	c0,0.002,0,0.002,0,0.003c0-0.036,0.558-0.069,0.809-0.098C134.117,279.835,133.447,282.194,132.681,284.11z"/>
<polygon fill="none" points="158.53,315.985 158.559,316.171 158.562,316.168 "/>
<path fill="none" d="M142.974,278.873c0,0,0.001,0,0.001,0c-0.376-0.161-0.79-0.335-1.23-0.506c0.389,0.186,0.752,0.411,1.091,0.67
	C142.887,278.984,142.938,278.933,142.974,278.873z"/>
<path fill="none" d="M181.107,180.928l8.134-33.288c-1.522-0.655-3.057-1.513-4.614-2.503c-2.538-1.62-1.786-3.687-0.629-5.194
	c-0.048-0.61,0.335-1.5,0.648-2.115c-0.314,0.615-0.698,1.506-0.649,2.115c-1.157,1.509-1.909,3.575,0.629,5.195
	c1.557,0.99,3.09,1.849,4.613,2.504l-8.136,33.29c-0.168,1.405-0.302,2.742-0.409,4.022c0.002-0.001,0.004-0.002,0.006-0.002
	C180.808,183.671,180.939,182.335,181.107,180.928z"/>
<path fill="none" d="M132.685,284.542c-0.002,0.008-0.005,0.018-0.008,0.025c-0.02,0.012-0.039,0.024-0.057,0.036
	c-1.002,2.906-2.058,5.825-3.147,8.729c0,0.001-0.001,0.004-0.002,0.007c0,0.001-0.001,0.002-0.001,0.004
	c0.009,0.004,0.018,0.011,0.023-0.004c0.001-0.003,0.024-0.006,0.025-0.007c0.017,0.007,0.073-0.125,0.092-0.12
	c-0.014-0.029-0.033-0.212-0.036-0.212H130v0.343c0,0,0,0.008,0,0.011c0,0.005,0,0.01,0,0.021c1-2.928,1.859-5.833,2.865-8.766
	c0.001-0.005-0.091,0.002-0.089,0.008C132.777,284.591,132.692,284.521,132.685,284.542z"/>
<path fill="none" d="M135,277.603c0,0.007,0,0.014,0,0.021c0,0.002,0,0.002,0,0.004c1-0.084,1.438-0.136,2.182-0.139
	c0.968-0.003,1.905,0.085,2.807,0.285c-0.905-0.25-1.875-0.428-2.847-0.426c-0.734,0.001-1.487,0.172-2.208,0.253
	c0.546-1.736,1.128-3.454,1.616-5.151c-0.481,1.696-1.55,3.415-1.55,5.151C135,277.601,135,277.602,135,277.603z"/>
<path fill="none" d="M132.851,284.331c-0.031-0.023-0.066-0.052-0.066-0.053C132.784,284.279,132.819,284.308,132.851,284.331
	L132.851,284.331z"/>
<path fill="none" d="M145,235.72c0,0.005,0,0.01,0,0.015c0,6.232-2.608,16.914-6.719,29.232c-0.055,0.233-0.03,0.471-0.087,0.706
	c4.103-12.207,6.96-22.899,7.23-29.345l-0.268-0.612C145.153,235.717,145,235.719,145,235.72z"/>
<path fill="none" d="M136.538,272.244c0.537-1.88,1.036-3.731,1.489-5.543c-0.044,0.13-0.09,0.263-0.135,0.393
	C137.469,268.78,137.029,270.5,136.538,272.244z"/>
<path fill="none" d="M145,232.57v0.015v0.003l0.328,1.227c0.058,0.564,0.093,1.185,0.085,1.856c0,0.001,0.038,0.002,0.037,0.002
	c-0.003,0.209,0.003,0.366-0.005,0.585l1.967,9.742c0,0,0.013,0,0.019,0L145,235.647c0,0.006,0,0.013,0,0.019v-0.002
	c0-0.008,0.327-0.04,0.326-0.026l0.166,0.01c0.007-0.663,0.065-1.275,0.007-1.833c0-0.004,0.041-0.007,0.04-0.011l-0.173-1.229
	c-0.001-0.002-0.165-0.006-0.166-0.009c0,0.001-0.2,0.009-0.2,0.022v-0.003c0-0.012,0.378-0.585,0.378-0.585h0.002
	c0,0-0.014,0.291-0.037,0.301l-0.17,0.123c0,0-0.174,0.122-0.174,0.123V232.57L145,232.57z"/>
<path fill="none" d="M145.178,232.671c0.002-0.001,0.005-0.003,0.007-0.004c0.032-0.021,0.059-0.039,0.081-0.053
	c0.002-0.001,0-0.001,0.002-0.002c0.038-0.025,0.058-0.039,0.063-0.043c0.001-0.001,0.003-0.004,0.003-0.004
	s-0.034,0.019-0.078,0.047c-0.002-0.016-0.019-0.032-0.023-0.047c0,0-0.363,0.231-1.13,0.631l-0.012,0.035
	C144.604,232.967,144.968,232.779,145.178,232.671z"/>
<path fill="none" d="M153.152,276.909c-0.038,0-0.075-0.007-0.112-0.02c0.008,0.006,0.016,0.014,0.024,0.02H153.152z"/>
<path fill="none" d="M132,240.11v0.003c0-0.069-0.061-0.139,0.04-0.209c0.615-1.058,1.116-1.553,1.763-2.257
	c5.288-5.751,11.148-7.218,11.148-7.218s-5.958,1.341-11.247,7.092c-0.714,0.776-1.428,1.534-2.103,2.476
	c-0.026,0.018-0.06,0.044-0.085,0.068c0.026-0.035,0.048-0.063,0.074-0.099c-0.005,0.003-0.012,0.007-0.017,0.01
	c-0.021,0.028-0.043-0.001-0.064,0.026c-0.014,0.019-0.029-0.003-0.042-0.003c0,0-0.009,0-0.021,0c-0.019,0-0.042,0.055-0.06,0.055
	c-0.007,0.004-0.014,0.038-0.021,0.044c-0.002,0.001,0.034,0.025,0.064,0.03c0.013-0.01,0.29-0.011,0.304-0.021
	C131.735,240.107,132,240.112,132,240.11z"/>
<polygon fill="none" points="164.974,181.324 165.23,181.262 164.974,181.242 "/>
<path fill="none" d="M174.61,184.014c0,0,0.008,0.006,0.01,0.007C174.618,184.02,174.61,184.013,174.61,184.014
	c-0.353-0.283-0.706-0.535-1.06-0.777l0.001,0.001C173.905,183.479,174.257,183.731,174.61,184.014z"/>
<path fill="none" d="M155.738,182.945c-0.04,0.036-0.068-0.062-0.068-0.062c-0.138,0.317-0.183,0.574-0.16,0.784
	c-0.01-0.197,0.034-0.432,0.16-0.722C155.67,182.945,155.698,182.981,155.738,182.945z"/>
<path fill="none" d="M159.082,185.378c0.409,0.053,0.812,0.075,1.206,0.075C159.895,185.453,159.491,185.431,159.082,185.378z"/>
<path fill="none" d="M144.68,230.214v0.032c0,0,0.107,0.062,0.105,0.063c-0.002-0.001,0.105,0.12,0.104,0.12
	c0.001,0,0.002-0.047,0.003-0.082C144.82,230.305,144.753,230.257,144.68,230.214z"/>
<path fill="none" d="M174.279,185.972c-0.006-0.005-0.015-0.012-0.021-0.016l-0.354,1.057c-4.373,0.727-9.292,0.984-11.992,1.075
	c0.002,0.001,0.003,0.002,0.005,0.003c2.674-0.088,7.611-0.343,12.039-1.078L174.279,185.972z"/>
<path fill="none" d="M149.778,236.974c-0.005-0.479-0.029-1.017-0.323-1.588C149.596,235.956,149.707,236.497,149.778,236.974z"/>
<path fill="none" d="M167.737,184.038c-0.711-0.009-1.194,0.05-1.528,0.109C166.545,184.088,167.03,184.03,167.737,184.038z"/>
<path fill="none" d="M149.492,185.722c-0.159-0.057-0.244-0.089-0.244-0.089c0.023,0.016,0.047,0.029,0.07,0.045
	c3.777,2.513,8.682,3.232,13.52,3.083c-0.018-0.01-0.038-0.021-0.056-0.031C158.036,188.869,153.23,188.136,149.492,185.722z"/>
<path fill="none" d="M163.729,180c-4.379,0-7.525,2.501-7.991,2.923c0.472-0.422,3.659-2.923,8.036-2.923
	C163.754,180,163.729,180,163.729,180z"/>
<path fill="none" d="M163.855,180.022c0.146,0,0.509,0.002,1.042,0.05C164.365,180.024,164.002,180.022,163.855,180.022z"/>
<path fill="none" d="M129.754,241.142c0.481-0.289,0.97-0.58,1.47-0.874C130.726,240.344,130.234,240.784,129.754,241.142z"/>
<path fill="none" d="M154.177,184.401c0.711,0.003,1.468,0.084,2.248,0.282C155.643,184.484,154.887,184.404,154.177,184.401z"/>
<path fill="none" d="M174.502,185.189L174.54,185c-0.002,0-0.004,0-0.006,0l-0.002,0.062l-0.002,0.035
	c-0.401-0.077-0.818-0.147-1.274-0.256c-0.396-0.095-0.765-0.168-1.12-0.243c0.012,0.007,0.022,0.017,0.034,0.022
	c-0.007-0.002-0.015-0.001-0.021-0.003c0.026,0.014,0.049,0.027,0.076,0.041c0.328,0.075,0.667,0.143,1.031,0.229
	C173.701,184.995,174.109,185.18,174.502,185.189z"/>
<path fill="none" d="M166.352,182.89c0.267,0.001,0.42,0.007,0.42,0.007c2.127,0.313,3.986,1.027,5.288,1.697
	c-1.302-0.67-3.135-1.384-5.262-1.697C166.797,182.896,166.635,182.89,166.352,182.89z"/>
<path fill="none" d="M145.308,230.61c0.705,0.521,1.379,1.117,2.025,1.801C146.728,231.73,146.071,231.127,145.308,230.61z"/>
<path fill="none" d="M137.863,209.777c2.779,5.53,6.1,12.062,8.665,17.291c-0.002-0.006-0.004-0.011-0.006-0.017
	C143.957,221.826,140.639,215.302,137.863,209.777L137.863,209.777z"/>
<path fill="none" d="M129.582,241.011c-0.144,0.154-0.196,0.248-0.186,0.301C129.404,241.245,129.458,241.143,129.582,241.011z"/>
<path fill="none" d="M150.547,141.11c0.009-0.541-0.068-1.053-0.205-1.531c-0.002-0.001-0.005-0.001-0.007-0.002
	C150.475,140.057,150.555,140.569,150.547,141.11z"/>
<path fill="none" d="M133.691,146.253c1.536,0.642,4.041,1.202,6.736,1.266c-0.16-0.005-0.317-0.018-0.477-0.026
	C137.458,147.372,135.135,146.851,133.691,146.253z"/>
<path fill="none" d="M151.698,240.123c0.006,0.883-0.212,1.605-0.742,2.09C151.495,241.719,151.713,241.013,151.698,240.123z"/>
<path fill="none" d="M144.952,230.908L145,230.91v-0.002c0,0-2.479,1.647-5.688,3.936c2.859-1.96,5.059-3.464,5.609-3.839
	L144.952,230.908z"/>
<path fill="none" d="M157.772,274.945c0.675,0,1.354,0.014,1.964,0.038C159.09,274.958,158.483,274.945,157.772,274.945z"/>
<path fill="none" d="M129.55,133.11l0.734,3.003l2.961-1.938l-2.737,1.936L130,133.11v-0.004c1-0.401,2.548-0.915,4.168-1.566
	c0.945-0.516,1.591-0.822,2.165-0.986c0.008-0.007-0.04-0.021-0.033-0.024c0,0,0-0.032,0.042-0.036
	c0.861-0.229,1.273-0.224,1.273-0.224s-0.433-0.013-1.294,0.217c-0.042,0.004-0.073,0.029-0.073,0.029
	c-0.007,0.004-0.018,0.003-0.025,0.01c-0.575,0.164-1.108,0.443-2.054,0.959c-1.62,0.651-3.169,1.109-4.169,1.512V133
	c0,0-0.225,0-0.226,0l-1.869-7.133c-0.009,0.002-0.073-0.023-0.082-0.021L129.55,133.11z"/>
<path fill="none" d="M185.363,273.626c0.109-0.015,0.216,0.006,0.324,0.009c-0.104-0.003-0.206-0.032-0.311-0.023
	C185.372,273.617,185.368,273.623,185.363,273.626z"/>
<polygon fill="none" points="174.354,315.533 179.355,278.667 179.371,278.627 179.355,278.59 "/>
<path fill="none" d="M172.092,275c-4.163,0-8.351,0-12.096,0C163.741,275,167.929,275,172.092,275z"/>
<path fill="none" d="M172,274.787c0,0.002,0,0.002,0,0.004c0-0.001,0.018,0.004,0.026,0.004c-0.004,0.038-0.026,0.111-0.026,0.141
	c0-0.002,0-0.002,0-0.004c0-0.019,0.208,0.023,0.211,0.034c-0.002,0,0.198,0.034,0.196,0.034c-0.001,0-0.407,0-0.407,0v-0.059
	c0,0.003,0.404,0.059,0.404,0.059c0.001,0,0.001,0,0.003,0c0.003,0,0.006,0,0.006,0c0.001,0,0.001,0,0.002,0s0,0,0.001,0
	c0.252,0,0.504,0,0.755,0l0.002-0.143c0.008,0,0.016-0.122,0.023-0.123c-0.007,0.001-0.015,0.101-0.023,0.101
	c-0.247,0.015-0.495,0.165-0.743,0.165c-0.009,0-0.018,0-0.027,0c0.004,0,0.009-0.198,0.014-0.245
	c0.122-1.22,0.251-2.423,0.39-3.685c-0.139,1.262-0.47,2.385-0.592,3.604C172.211,274.722,172,274.741,172,274.787z"/>
<path fill="none" d="M159.987,274.979c0.079,0.687,0.154,1.311,0.229,1.93c-0.071-0.598-0.145-1.297-0.22-1.964
	c-0.002,0-0.004,0-0.006,0c0,0-0.001,0-0.002,0c-0.005,0-0.009,0-0.014,0C159.978,274.945,159.982,274.938,159.987,274.979z"/>
<path fill="none" d="M172.194,274.938c-0.012,0-0.02,0.001-0.02,0.002c0,0,0,0.001,0,0.002c0.016-0.001,0.031-0.002,0.046-0.002
	C172.212,274.94,172.202,274.939,172.194,274.938z"/>
<path fill="none" d="M138.478,208.99c1.398-2.121,3.485-6.886,3.535-16.605c0.017-3.24-0.128-7.03-0.656-11.458l-8.447-34.965
	c-0.036-0.019-0.072,0.038-0.107,0.038c-0.012,0-0.021,0-0.021,0l-0.078-0.146c-0.022-0.012-0.05-0.073-0.072-0.085l0.022,0.067
	l8.582,35.104c0.528,4.427,0.51,8.212,0.494,11.452c-0.051,9.72-1.729,14.48-3.729,16.602v-0.002c0,0.042,0.17,0.077,0.143,0.117
	c-0.029,0.044,0.055,0.081,0.025,0.122c2.027,4.109,5.467,10.971,8.018,17.135c0.001,0.002,0.03,0.005,0.031,0.008
	c0.014,0.032,0.04,0.064,0.054,0.097c0.102,0.211,0.211,0.426,0.311,0.63c0.001,0.001-0.009,0.005-0.009,0.006
	s-0.025,0.006-0.024,0.007c1.16,2.855,2.08,5.523,2.651,7.646c0.049,0.071,0.099,0.139,0.147,0.211c0.004,0.017,0.002,0.029,0,0.042
	h0.001c0,0,0,0,0.001,0c0.006,0,0.019,0.041,0.032,0.049c0.01,0.007,0.02,0.037,0.024,0.043c0,0.001,0.001,0.002,0.001,0.003
	c0.781,1.188,1.516,2.588,2.208,4.037c0.004,0.026,0.006,0.051,0.01,0.077c3.76,7.89,6.243,19.369,7.872,31.797
	c-1.63-12.438-4.116-24.079-7.881-31.969c-0.004-0.028-0.012-0.061-0.016-0.09c-0.697-1.455-1.436-2.788-2.222-3.979
	c-0.566-2.158-1.567-4.916-2.771-7.876c-0.001-0.001-0.001-0.002-0.002-0.003s-0.001-0.003-0.001-0.004
	c-2.603-6.402-6.136-13.732-8.236-17.988c0,0,0,0,0.001,0c0.027-0.04,0.053-0.073,0.08-0.115c5.202,8.399,21.918,28.572,49.41,3.083
	c0.492,0.273,0.978,0.544,1.457,0.792c0.002-0.004,0.004-0.008,0.006-0.011c-0.481-0.249-0.969-0.514-1.463-0.789
	C160.366,237.56,143.68,217.39,138.478,208.99z"/>
<path fill="none" d="M159.9,274.816c0.003,0.032-0.052,0.086-0.048,0.129c0.001,0.01-0.116,0.021-0.116,0.03
	c0-0.009,0.235-0.021,0.234-0.03c-0.004-0.043-0.008-0.097-0.011-0.129c-0.07-0.605-0.148-1.212-0.222-1.817
	c-0.079-0.671-0.159-1.337-0.242-1.981c0.085,0.661,0.132,1.32,0.212,1.981C159.782,273.604,159.83,274.211,159.9,274.816z"/>
<path fill="none" d="M179.377,278.526L179.377,278.526l0.029-1.617L179,278.526v0.006c0,0,0.19,0.161,0.191,0.159l0.093,0.182
	c0.823-0.654,1.66-1.31,2.413-1.964c-0.753,0.653-1.518,1.125-2.34,1.615C179.355,278.525,179.378,278.525,179.377,278.526z"/>
<polygon fill="none" points="185.356,273.634 185.354,273.636 185.357,273.636 "/>
<polygon fill="#FFFFFF" points="131.475,240.11 131.471,240.115 131.474,240.113 "/>
<path fill="#EDD3AA" d="M129.396,241.312c-0.011-0.053,0.042-0.146,0.186-0.301c0.493-0.528,0.286-0.338-0.454,0.505
	c0.093-0.057,0.189-0.114,0.284-0.171C129.402,241.337,129.399,241.324,129.396,241.312z"/>
<path fill="#AC5424" d="M137.892,209.604c-3.163-6.294-5.669-11.24-5.749-11.398c-0.018,0.025-0.028,0.036-0.005-0.01
	c0,0-16.038-23.447-24.338-46c0,0-9.203-3.565-10.682-12.166c0,0-2.219-8.964,3.27-13.063c0,0,5.176-4.319,8.165,0.726
	c2.827-1.81-0.933-15.774,4.297-18.775c2.195-2.375,4.047-4.029,5.648-5.205c-10.45-10.771-18.301-28.506-0.839-53.854
	c0,0-49.059,6.093-52.669,60.01c0,0,0.044,37.204,32.404,63.954c-3.307,4.457-8.975,8.429-16.171-0.85
	c0,0-1.294,21.959,15.351,16.067c0,0,5.365-0.691,10.917-5.311c0.392,0.584,0.791,1.203,1.188,1.854
	c-3.309,5.979-10.438,15.42-20.912,11.136c0,0,10.612,11.273,23.023,3.384l2.561-1.875c0.324,5.096-1.869,9.938-9.402,12.776
	c0,0,0.233,0.349,0.716,0.878c0.146,0.159,0.313,0.335,0.503,0.522c1.842,1.812,5.835,4.745,12.407,4.775
	c4.986,0.022,11.456-1.626,19.598-6.7c0,0,0.277-0.207,0.688-0.701l0,0c-0.014-0.027-0.029-0.057-0.042-0.085
	C137.843,209.664,137.868,209.634,137.892,209.604z"/>
<path fill="#EDD3AA" d="M133.152,145.995c-0.071-0.037-0.127-0.067-0.193-0.102c0.042,0.031,0.101,0.063,0.167,0.099
	c0.169,0.088,0.36,0.175,0.566,0.261c1.444,0.598,3.766,1.119,6.259,1.239C137.126,147.345,134.483,146.688,133.152,145.995z"/>
<path fill="#EDD3AA" d="M132.782,145.812c0,0,0.009,0,0.021,0c-0.031-0.017-0.068-0.036-0.099-0.052L132.782,145.812z"/>
<path fill="#EDD3AA" d="M186.261,145.413c-2.376-1.518-1.871-3.424-0.849-4.898c-0.999,0.252-1.373-0.05-1.414-0.572
	c-1.157,1.508-1.909,3.574,0.629,5.194c1.557,0.99,3.092,1.848,4.614,2.503l0.107-0.438
	C188.326,146.678,187.298,146.073,186.261,145.413z"/>
<path fill="#EDD3AA" d="M146.242,226.365c-2.551-6.164-5.935-13.025-7.962-17.135c-0.121,0.172-0.237,0.33-0.343,0.462
	c-0.015-0.03-0.029-0.059-0.044-0.089c-0.024,0.03-0.049,0.061-0.072,0.089c0.014,0.028,0.028,0.058,0.042,0.085
	c2.776,5.524,6.094,12.049,8.659,17.274c0.006,0.014,0.014,0.028,0.021,0.043c0,0,0.001,0.002,0.001,0.003
	c-0.084-0.208-0.172-0.418-0.259-0.628c-0.013-0.032-0.026-0.064-0.04-0.097C146.244,226.37,146.243,226.367,146.242,226.365z"/>
<path fill="#EDD3AA" d="M173.552,183.237l1.039,1.888l-0.059-0.062l0.002-0.062c0.002,0,0.004,0,0.006,0
	c0.417,0,0.807,0.212,1.169,0.262c-0.115-0.609-1.033-1.234-1.089-1.274c-0.002-0.001-0.01,0.01-0.01,0.01
	C174.257,183.715,173.905,183.479,173.552,183.237z"/>
<path fill="#EDD3AA" d="M126.79,138.48c-0.058,0.007-0.115,0.015-0.173,0.02c-1.206,0.822-3.846,3.058,0.156,4.706
	c4.787,1.961,3.251,1.221,5.881,2.605l-0.022-0.09c-2.392-1.265-1.023-0.598-5.703-2.516
	C122.885,141.544,125.598,139.287,126.79,138.48z"/>
<path fill="#EDD3AA" d="M132.144,198.205c-0.001-0.002-0.005-0.01-0.005-0.01C132.115,198.241,132.126,198.23,132.144,198.205z"/>
<path fill="#EDD3AA" d="M132.139,198.195c0,0,0.004,0.008,0.005,0.01C132.181,198.152,132.252,198.032,132.139,198.195z"/>
<path fill="#EDD3AA" d="M189.241,147.64c1.547,0.666,3.08,1.122,4.608,1.266c-1.492-0.339-2.989-0.928-4.501-1.703L189.241,147.64z"
	/>
<path fill="#EDD3AA" d="M180.846,185.011c-0.045,0.018-0.104,0.04-0.155,0.06c-0.001,0.016-0.003,0.032-0.004,0.047
	C180.739,185.082,180.794,185.045,180.846,185.011z"/>
<path fill="#EDD3AA" d="M180.826,185.064c0.104-0.055,0.2-0.112,0.298-0.168c-0.068,0.028-0.143,0.06-0.231,0.096
	C180.87,185.017,180.848,185.039,180.826,185.064z"/>
<path fill="#EDD3AA" d="M184.647,137.827c0.175-0.343,0.329-0.603,0.373-0.675c0.008-0.014,0.013-0.021,0.013-0.021
	s3.071-3.329,7.982-4.934c0,0,11.268-8.028,8.312-7.437l-8.312,7.437c1.602-0.523,3.396-0.865,5.348-0.846
	c7.472,0.066,12.053,3.709,12.053,3.709c2.35-0.106,3.305,0.126,3.557,0.473l9.718-21.312c-4.421-1.504-8.898-3.427-13.278-5.576
	c1.389,2.591,2.457,5.34,3.012,8.221c0,0-4.688-4.677-14.358-9.433c-7.19-3.536-17.13-7.115-29.97-8.847c0,0-5.682,0.164-13.4-0.715
	c4.474,7.117,12.199,16.949,21.523,18.642c0,0-33.636,1.029-44.061-15.825c0,0-5.365,4.457,3.787,15.825
	c0,0-6.543-2.703-13.474-8.282c-1.664-1.339-3.348-2.848-4.971-4.521c-1.601,1.176-3.454,2.83-5.648,5.205
	c-5.229,3-1.47,16.965-4.297,18.775c-2.988-5.045-8.165-0.726-8.165-0.726c-5.489,4.1-3.27,13.063-3.27,13.063
	c1.479,8.601,10.682,12.166,10.682,12.166c8.3,22.553,24.338,46,24.338,46c0.004-0.006,0.002-0.006,0.006-0.011
	c0,0.007-0.004,0.015-0.001,0.021c25.629,46.736,55.714,13.864,55.714,13.864c4.715-4.372,9.747-10.084,15.092-17.432
	c0.696-1.02,1.409-2.088,2.137-3.205l-23.946,9.854c-0.079-0.427-0.154-0.867-0.223-1.331l5.772-4.594l26.834-58.846
	c-0.453,0.386-1.037,0.695-1.037,0.695c-2.628,1.041-4.594,0.197-4.594,0.197l-0.337-0.105c1.881,1.059,2.762,2.776,2.046,4.166
	c-0.993,1.936-1.665,2.31-7.071,5.865c-2.903,1.915-5.779,2.229-8.681,1.57c-1.529-0.144-3.062-0.6-4.608-1.266l-8.134,33.288
	c-0.168,1.407-0.3,2.743-0.406,4.024c0.243-0.083,0.468-0.159,0.691-0.213c0.095-0.022,0.059,0.007-0.075,0.07
	c-0.106,0.099-0.328,0.305-0.655,0.604c-0.252,0.23-0.565,0.514-0.924,0.835c-10.208,6.892-27.391-0.804-24.987-0.795
	c0.71,0.002,0.892-0.969,1.674-0.77c0.26,0.065,0.522,0.145,0.787,0.237c0.675,0.238,1.216,0.378,1.871,0.457
	c0.409,0.053,0.812,0.075,1.206,0.075c2.752-0.003,5.012-1.135,5.382-1.196c0.112-0.019,0.647,0.685,0.902,0.64
	c0.334-0.06,1.227,0.1,1.803,0.517c1.012,0.733,1.75-1.226,3.685-0.819c-1.302-0.67-3.161-1.384-5.288-1.697
	c0,0-0.153-0.006-0.42-0.007c0.283,0,0.445,0.007,0.445,0.007c2.127,0.313,3.96,1.027,5.262,1.697
	c0.022,0.005,0.042,0.008,0.064,0.013c0.009,0.005,0.017,0.009,0.025,0.014c0.007,0.002,0.014,0.003,0.021,0.005
	c-0.012-0.006-0.022-0.012-0.034-0.019c0.355,0.075,0.724,0.157,1.12,0.252c0.456,0.108,0.873,0.195,1.274,0.272l0.002-0.002
	l0.059-0.123L173.552,183h-0.001c0.354,0,0.707,0.612,1.06,0.895c0,0,0.154,0.066,0.156,0.066c0.056,0.041,1.234,0.564,1.234,1.174
	V185c0,0-0.286,0-0.284,0c0.689,0,1.286,0.305,1.808,0.312c1.564,0.023,2.456-0.196,3.172-0.44c0.106-1.28,0.241-2.576,0.409-3.981
	l8.136-33.27c-1.523-0.655-3.057-1.504-4.613-2.494c-2.538-1.62-1.786-3.681-0.629-5.189
	C183.949,139.328,184.333,138.442,184.647,137.827z M150.343,139.579c0.136,0.479,0.214,0.99,0.205,1.531
	c-0.012,0.916-0.272,1.913-0.917,2.972c-1.631,2.672-5.3,3.503-8.85,3.451c-0.119-0.002-0.235-0.011-0.353-0.015
	c-2.695-0.063-5.2-0.624-6.736-1.266c-0.206-0.086-0.397-0.173-0.566-0.261c-0.066-0.035-0.125-0.067-0.167-0.099
	c-0.017-0.009-0.033-0.018-0.049-0.025l-0.256-0.057c-2.629-1.385-1.094-0.645-5.881-2.605c-4.002-1.648-1.362-3.884-0.156-4.706
	c-1.679,0.163-3.638-0.086-5.48-1.383c0,0-1.962-2.604,3.395-2.7c0,0,1.469-0.312,5.469-1.307v-0.138
	c1-0.396,2.542-0.849,4.131-1.488c0.945-0.516,1.609-0.795,2.184-0.959c0.007-0.007-0.031-0.006-0.024-0.01
	c0,0,0.004-0.16,0.046-0.164c0.861-0.229,1.264-0.352,1.264-0.352h0.549c3.34,0,10.882,0.486,13.656,7.988
	C151.805,137.988,151.831,140.17,150.343,139.579z"/>
<path fill="#EDD3AA" d="M235.991,134.988c0,0-0.885-4.156-5.032-6.827c0,0,0.926-4.804,1.201-11.599
	c-2.771-0.568-5.608-1.365-8.47-2.34l-9.718,21.312c0.212,0.291-0.072,0.663-0.448,0.982l-26.834,58.846l-5.772,4.594
	c0.068,0.464,0.144,0.904,0.223,1.331l23.946-9.854c6.244-9.59,13.399-22.654,17.564-37.165
	C222.65,154.268,239.266,154.865,235.991,134.988z"/>
<path fill="#994C1F" d="M245.932,117.153c-0.777-3.001-1.654-5.872-2.619-8.625c-0.769-2.189-1.594-4.302-2.472-6.34
	C210.69,32.242,117.66,49.857,117.66,49.857c-17.461,25.349-9.611,43.084,0.839,53.854c1.624,1.673,3.308,3.182,4.971,4.521
	c6.931,5.579,13.474,8.282,13.474,8.282c-9.152-11.369-3.787-15.825-3.787-15.825c10.425,16.854,44.061,15.825,44.061,15.825
	c-9.324-1.693-17.049-11.525-21.523-18.642c7.718,0.879,13.4,0.715,13.4,0.715c12.84,1.732,22.779,5.311,29.97,8.847
	c9.67,4.756,14.358,9.433,14.358,9.433c-0.555-2.881-1.623-5.63-3.012-8.221c-0.438-0.819-0.906-1.623-1.405-2.408
	c-0.228-0.359-0.465-0.711-0.704-1.063c-7.677-11.317-20.605-18.766-20.605-18.766c6.847,0,13.057,0.978,18.656,2.602
	c10.47,3.035,18.795,8.334,25.11,13.774c0.045-0.021,0.091-0.04,0.136-0.06c0.009,0.066,0.016,0.131,0.024,0.198
	c1.93,1.672,3.671,3.355,5.226,4.988c3.45,3.622,5.982,6.992,7.644,9.442c1.625,2.394,2.421,3.908,2.421,3.908
	C246.608,119.865,246.279,118.497,245.932,117.153z"/>
<path fill="#AC5424" d="M227.099,176.906c21.128-20.064,57.46-66.128,17.113-118.584c0,0-62.94-67.333-126.552-8.465
	c0,0,93.031-17.615,123.181,52.332c0.878,2.038,1.703,4.151,2.472,6.34c0.965,2.752,1.842,5.624,2.619,8.625
	c0.348,1.344,0.677,2.712,0.984,4.107c0,0-0.796-1.515-2.421-3.908c-1.662-2.45-4.194-5.82-7.644-9.442
	c-1.555-1.633-3.296-3.316-5.226-4.988c-0.008-0.066-0.015-0.132-0.024-0.198c-0.045,0.021-0.091,0.04-0.136,0.06
	c-6.315-5.439-14.64-10.739-25.11-13.774c-5.6-1.624-11.81-2.602-18.656-2.602c0,0,12.928,7.449,20.605,18.766
	c0.239,0.352,0.476,0.705,0.704,1.063c0.499,0.785,0.966,1.589,1.405,2.408c4.38,2.149,8.857,4.072,13.278,5.576
	c2.862,0.975,5.699,1.771,8.47,2.34c-0.275,6.795-1.201,11.599-1.201,11.599c4.147,2.671,5.032,6.827,5.032,6.827
	c3.274,19.877-13.341,19.279-13.341,19.279c-4.165,14.511-11.32,27.575-17.564,37.165c-0.728,1.117-1.44,2.186-2.137,3.205
	c0.017-0.024,0.033-0.046,0.051-0.069c0,0-5.241,9.253-10.233,19.913c18.144,7.675,25.61-3.479,25.61-3.479
	c-8.225-3.097-10.079-8.591-9.237-14.195l4.5,3.294c12.417,7.89,23.016-3.384,23.016-3.384
	c-10.061,4.115-17.032-4.433-20.496-10.412c0.049-0.037,0.101-0.078,0.151-0.116c5.765,5.097,11.544,5.839,11.544,5.839
	c16.644,5.891,15.347-16.067,15.347-16.067C236.055,185.173,230.416,181.323,227.099,176.906z"/>
<path fill="#243A85" d="M170.997,292.815c0.163-3.687,0.51-7.433,0.52-11.166l-5.421,22.622l-0.581-2.028l-0.281-0.987
	l-4.144-14.472c0.801,10.362,1.265,20.632,1.265,29.387c0,0,0,0,0,0.001c0.655,0.004,1.032,0.016,1.456,0.016
	c2.349,0,4.189-0.062,7.189-0.167c0-0.01,0-0.021,0-0.032c0-0.001,0-0.002,0-0.003c0-0.002,0-0.002,0-0.003
	c0,0.001-0.166,0.002-0.18,0.003c-0.017,0-0.137,0.002-0.153,0.003C170.64,309.093,170.634,301.103,170.997,292.815z"/>
<path fill="#243A85" d="M171.817,281.492c0.002-0.036,0.003-0.063,0.006-0.097c0.009-0.153,0.018-0.29,0.027-0.418
	c0-0.012,0.002-0.021,0.002-0.032c0.006-0.121,0.013-0.229,0.019-0.338l-0.291,0.885c0.042,0,0.092,0,0.094,0
	C171.672,281.492,171.819,281.456,171.817,281.492z"/>
<path fill="#243A85" d="M172.221,274.94c-0.015,0-0.03,0.001-0.046,0.002c0,0.001,0,0.002,0,0.003c0.036,0,0.071,0,0.106,0
	C172.282,274.943,172.25,274.942,172.221,274.94z"/>
<path fill="#243A85" d="M172.188,277c0.065-1,0.024-1,0.093-2c-0.036,0-0.071,0-0.106,0c-0.027,0-0.055,0-0.083,0
	c-4.163,0-8.351,0.018-12.096,0.018c0.075,0.668,0.149,0.982,0.22,1.982H172.188z"/>
<path fill="#243A85" d="M161.114,286.792l4.12,14.464l0.281,0.987l0.581,2.028l5.421-22.622c0-0.052,0.003-0.104,0.003-0.155
	c-1.324,0.006-2.685,0.381-4.076,0.381c-0.889,0-1.762-0.06-2.626-0.162c-0.295-0.034-0.587-0.078-0.878-0.123
	c-1.139-0.167-2.255-0.406-3.333-0.736C160.794,282.83,160.961,284.813,161.114,286.792z"/>
<path fill="#243A85" d="M160.605,281c0,0,0.001,0,0.002,0c1.078,0,2.193,0.497,3.333,0.671c0.292,0.045,0.583,0.048,0.878,0.083
	c0.864,0.102,1.977,0.142,2.866,0.142c1.391,0,2.315-0.396,4.315-0.401c0-0.001,0-0.494,0-0.494l0,0c0,0-0.451,0-0.419,0
	l0.291-0.639l0.093-0.16l0.048-0.032c0.013-0.085-0.057-0.138-0.05-0.228c0.001-0.016,0.037-0.006,0.037-0.023
	c0-0.003,0-0.008,0-0.011l0.013-0.019l0.11-0.589c-0.002-0.116,0.017-0.185,0.014-0.298c-0.016-0.588-0.008-1.002,0.051-2.002
	h-11.972c0.138,1,0.269,3,0.392,4C160.606,281,160.606,281,160.605,281z"/>
<path fill="#FFFFFF" d="M131.471,240.115c-0.014,0.01-0.028,0.019-0.041,0.028c-0.008,0.006-0.016,0.011-0.023,0.017
	c0.019-0.011,0.037-0.022,0.056-0.033C131.465,240.123,131.468,240.119,131.471,240.115z"/>
<path fill="#FFFFFF" d="M122.636,246.233c0,0,0.001-0.002,0.002-0.002c-1.123,0.789-1.842,1.306-1.937,1.401
	c-4.699,4.699-19.229,21.906-27.854,51.096c1.025,0.54,2.057,1.067,3.095,1.585c7.5-21.612,17.948-38.481,25.26-48.673
	C121.67,248.767,122.156,246.843,122.636,246.233z"/>
<path fill="#FFFFFF" d="M121.204,251.641c-7.312,10.191-17.76,27.061-25.26,48.673c7.059,3.512,14.425,6.498,22.053,8.895
	C117.721,290.528,119.312,263.282,121.204,251.641z"/>
<path fill="#FFFFFF" d="M179.738,186.248c0.359-0.321,0.672-0.604,0.924-0.835c0.004-0.062,0.01-0.125,0.015-0.188
	C180.361,185.575,180.048,185.916,179.738,186.248z"/>
<path fill="#FFFFFF" d="M163.688,189.118c0.611,0,10.127-1.656,10.127-1.656l0.097-0.312c-3.208,0.789-7.116,1.489-11.074,1.611
	C163.233,188.975,163.547,189.118,163.688,189.118z"/>
<path fill="#FFFFFF" d="M181.124,184.896c-0.098,0.056-0.194,0.113-0.298,0.168c-0.05,0.056-0.099,0.106-0.148,0.161
	c-0.005,0.062-0.01,0.125-0.015,0.188c0.328-0.299,0.549-0.505,0.655-0.604C181.268,184.833,181.205,184.861,181.124,184.896z"/>
<path fill="#E2C099" d="M161.505,173.125c3.705,0.75,3.154,0.514,7-0.454c3.865-0.955,1.481-5.97,1.481-5.97l-1.133-12.101
	c-0.864-7.365-0.953-11.977-0.953-11.977s-7.466,20.872-9.041,24.088C157.283,169.927,157.811,172.39,161.505,173.125z"/>
<path fill="#FFFFFF" d="M186.261,145.413c1.037,0.66,2.065,1.265,3.087,1.789l2.903-11.88c-3.167,1.285-6.499,5.102-6.499,5.102
	c-0.127,0.043-0.229,0.062-0.34,0.091C184.391,141.989,183.885,143.896,186.261,145.413z"/>
<path fill="#FFFFFF" d="M200.905,147.063c5.399-3.556,6.071-3.93,7.063-5.865c1.008-1.921-1.063-4.479-4.611-5.037
	c0,0-0.406-0.326-1.112-0.754c-3.519-1.431-6.691-1.196-9.569-0.249c-0.141,0.047-0.283,0.106-0.424,0.164l-2.903,11.88
	c1.512,0.775,3.01,1.364,4.501,1.703C196.201,149.125,198.542,148.62,200.905,147.063z M191.607,141.608
	c0-2.087,1.691-3.783,3.776-3.783c2.093,0,3.785,1.696,3.785,3.783s-1.692,3.78-3.785,3.78
	C193.298,145.389,191.607,143.695,191.607,141.608z"/>
<path fill="#FFFFFF" d="M202.245,135.407c0.706,0.428,1.112,0.754,1.112,0.754c3.548,0.559,5.62,3.116,4.611,5.037
	c-0.992,1.936-1.664,2.31-7.063,5.865c-2.363,1.557-4.704,2.062-7.055,1.842c2.902,0.658,5.778,0.345,8.681-1.57
	c5.406-3.556,6.078-3.93,7.071-5.865c0.715-1.39-0.165-3.107-2.046-4.166l-3.748-1.162
	C203.279,135.859,202.759,135.616,202.245,135.407z"/>
<path fill="#FFFFFF" d="M133.152,145.995c1.332,0.693,3.974,1.35,6.799,1.497c0.159,0.009,0.316,0.021,0.477,0.026
	c0.118,0.004,0.234,0.013,0.353,0.015c3.5,0.025,7.089-0.817,8.7-3.451c1.064-1.745,1.087-3.326,0.666-4.646
	c-0.516-0.771-4.626-6.385-13.715-4.727c0,0-3.67,0.893-5.481,2.422c0,0-0.131,0.079-0.368,0.2l2.05,8.39
	c0.022,0.011,0.05,0.026,0.072,0.038c0.03,0.016,0.067,0.035,0.099,0.052c0.035,0.018,0.071,0.037,0.107,0.057
	c0.016,0.008,0.032,0.017,0.049,0.025C133.024,145.928,133.081,145.958,133.152,145.995z M141.31,137.643
	c2.076,0,3.778,1.693,3.778,3.785c0,2.09-1.702,3.781-3.778,3.781c-2.09,0-3.788-1.691-3.788-3.781
	C137.521,139.336,139.22,137.643,141.31,137.643z"/>
<path fill="#FFFFFF" d="M150.204,139.525c0,0-0.021-0.033-0.058-0.089c0.422,1.319,0.399,2.9-0.666,4.646
	c-1.611,2.634-5.2,3.477-8.7,3.451c3.549,0.052,7.219-0.779,8.85-3.451c0.645-1.059,0.906-2.056,0.917-2.972
	c0.007-0.541-0.072-1.054-0.212-1.533C150.291,139.56,150.25,139.547,150.204,139.525z"/>
<path fill="#FFFFFF" d="M126.79,138.48c-1.192,0.807-3.905,3.063,0.139,4.726c4.68,1.918,3.311,1.251,5.703,2.516l-2.05-8.39
	C129.942,137.656,128.526,138.281,126.79,138.48z"/>
<path fill="#7F5026" d="M133.399,134.176c2.542-0.736,4.69-1.002,6.482-0.997c-0.067-0.001-0.13-0.006-0.198-0.006
	c-1.792,0-3.923,0.272-6.438,1.003l-2.961,1.938l0.021,0.084L133.399,134.176z"/>
<path fill="#7F5026" d="M136.244,130.529c-0.007,0.004-0.016,0.018-0.023,0.024c-0.575,0.164-1.107,0.471-2.053,0.986
	c-1.62,0.651-3.168,1.165-4.168,1.566v0.004l0.508,3.001l2.849-1.936c2.515-0.73,4.589-1.003,6.381-1.003
	c0.068,0,0.103,0.005,0.17,0.006c5.078,0.015,7.252,2.226,7.252,2.226s2.436,1.617,3.181,4.173c0.002,0.001,0.001,0.001,0.004,0.002
	c1.488,0.591,1.461-1.591,1.461-1.591c-2.774-7.502-10.318-7.988-13.658-7.988h-0.549c0,0-0.426,0.129-1.287,0.358
	C136.271,130.362,136.244,130.529,136.244,130.529z"/>
<path fill="#7F5026" d="M130.284,136.113l-0.734-3.003c-0.488,0.151-0.949,0.287-1.38,0.408c-2.397,0.674-3.864,0.898-3.864,0.898
	c-5.357,0.097-3.17,2.7-3.17,2.7c1.843,1.297,3.801,1.546,5.48,1.383c0.298-0.203,0.51-0.321,0.51-0.321L130.284,136.113z"/>
<path fill="#7F5026" d="M130.304,136.197l-0.021-0.084l-3.157,2.065c0,0-0.212,0.118-0.51,0.321c0.059-0.005,0.115-0.013,0.173-0.02
	c0.283-0.191,0.481-0.302,0.481-0.302L130.304,136.197z"/>
<path fill="#7F5026" d="M150.335,139.577c-0.745-2.556-3.188-4.173-3.188-4.173s-2.188-2.211-7.266-2.226
	c4.971,0.059,7.12,2.226,7.12,2.226s2.355,1.558,3.146,4.032c0.038,0.056,0.058,0.089,0.058,0.089
	C150.25,139.547,150.291,139.56,150.335,139.577z"/>
<path fill="#7F5026" d="M147,135.404c0,0-2.149-2.167-7.12-2.226c-1.792-0.005-3.939,0.261-6.482,0.997l-3.095,2.021l0.277,1.135
	c0.237-0.121,0.368-0.2,0.368-0.2c1.811-1.529,5.481-2.422,5.481-2.422c9.089-1.658,13.199,3.956,13.715,4.727
	C149.355,136.962,147,135.404,147,135.404z"/>
<path fill="#7F5026" d="M127.271,138.179c0,0-0.198,0.11-0.481,0.302c1.736-0.199,3.152-0.824,3.792-1.148l-0.277-1.135
	L127.271,138.179z"/>
<path fill="#7F5026" d="M186.771,126.674c-1.203,2.143,1.936,0.721,1.936,0.721c0.828-0.93,1.882-1.622,2.987-2.141l0.31-1.745
	C188.604,124.835,186.771,126.674,186.771,126.674z"/>
<path fill="#7F5026" d="M198.374,123.727c2.912-0.78,9.267,2.445,9.267,2.445c2.858-0.16,1.387-1.414,1.387-1.414l-5.938-2.241
	c-4.618-0.81-8.355-0.074-11.084,0.992l-0.31,1.745C194.827,123.785,198.374,123.727,198.374,123.727z"/>
<path fill="#7F5026" d="M149.161,124.373l-5.75-2.689c-8.105-2.07-13.797,0.977-15.795,2.315c-0.517,0.347-0.777,0.629-0.777,0.629
	c-0.941,1.413,0.329,1.362,1.187,1.124c0.009-0.002,0.017-0.004,0.026-0.007c0.374-0.104,0.662-0.248,0.662-0.248
	c3.437-3.312,9.912-2.942,9.912-2.942c1.396-0.263,10.766,4.578,9.048,3.134C150.536,125.748,149.161,124.373,149.161,124.373z"/>
<path fill="#7F5026" d="M186.08,137.907c1.637-1.598,5.189-3.788,5.189-3.788c0.466-0.185,0.926-0.32,1.383-0.436l0.363-1.485
	c-4.912,1.604-7.982,4.934-7.982,4.934s-0.004,0.007-0.013,0.021c-0.043,0.072-0.198,0.332-0.373,0.675
	c-0.313,0.615-0.697,1.505-0.648,2.115C184.913,138.751,186.08,137.907,186.08,137.907z"/>
<path fill="#7F5026" d="M186.08,137.907c0,0-1.167,0.844-2.081,2.035c0.042,0.522,0.415,0.824,1.414,0.572
	c0.935-1.348,2.301-2.336,2.301-2.336c1.261-1.231,3.655-2.812,4.688-3.473l0.25-1.022c-0.457,0.115-0.917,0.251-1.383,0.436
	C191.269,134.119,187.717,136.31,186.08,137.907z"/>
<path fill="#7F5026" d="M210.415,135.062c0,0-4.581-3.643-12.053-3.709c-1.951-0.02-3.746,0.322-5.348,0.846l-0.363,1.485
	c0.914-0.231,1.806-0.345,2.657-0.345c0.968,0.002,1.882,0.134,2.729,0.333c4.032,0.388,6.953,2.761,6.953,2.761
	c0.982,0.155,1.844,0.467,2.565,0.871l0.337,0.105c0,0,1.965,0.844,4.594-0.197c0,0,0.584-0.31,1.037-0.695l0.448-0.982
	C213.72,135.188,212.765,134.955,210.415,135.062z"/>
<path fill="#7F5026" d="M192.901,134.391c1.811-0.718,3.559-0.87,5.137-0.719c-0.847-0.199-1.761-0.331-2.729-0.333
	c-0.852,0-1.744,0.113-2.657,0.345l-0.25,1.022C192.708,134.51,192.901,134.391,192.901,134.391z"/>
<path fill="#7F5026" d="M213.972,135.534l-0.448,0.982C213.9,136.197,214.184,135.825,213.972,135.534z"/>
<path fill="#7F5026" d="M192.251,135.322l0.15-0.616c-1.033,0.661-3.427,2.241-4.688,3.473c0,0-1.366,0.988-2.301,2.336
	c0.111-0.028,0.213-0.048,0.34-0.091C185.753,140.424,189.084,136.607,192.251,135.322z"/>
<path fill="#7F5026" d="M192.901,134.391c0,0-0.192,0.119-0.5,0.315l-0.15,0.616c0.142-0.058,0.284-0.117,0.424-0.164
	c2.877-0.947,6.05-1.182,9.569,0.249c-0.935-0.567-2.406-1.312-4.207-1.735C196.46,133.521,194.711,133.673,192.901,134.391z"/>
<path fill="#7F5026" d="M203.808,136.142l3.748,1.162c-0.721-0.404-1.583-0.716-2.565-0.871c0,0-2.921-2.373-6.953-2.761
	c1.801,0.424,3.272,1.168,4.207,1.735C202.759,135.616,203.279,135.859,203.808,136.142z"/>
<path fill="#693E17" d="M140.655,144.554c2.077,0,3.778-1.69,3.778-3.78c0-2.093-1.702-3.785-3.778-3.785
	c-2.09,0-3.788,1.692-3.788,3.785C136.867,142.863,138.565,144.554,140.655,144.554z M140.655,137.872
	c1.6,0,2.888,1.299,2.888,2.901c0,1.6-1.288,2.891-2.888,2.891c-1.607,0-2.9-1.291-2.9-2.891
	C137.755,139.171,139.047,137.872,140.655,137.872z"/>
<path fill="#7F5026" d="M140.655,143.664c1.6,0,2.888-1.291,2.888-2.891c0-1.603-1.288-2.901-2.888-2.901
	c-1.607,0-2.9,1.299-2.9,2.901C137.755,142.373,139.047,143.664,140.655,143.664z"/>
<path fill="#693E17" d="M198.513,140.953c0-2.087-1.691-3.782-3.785-3.782c-2.085,0-3.776,1.695-3.776,3.782
	s1.691,3.781,3.776,3.781C196.822,144.734,198.513,143.04,198.513,140.953z M191.842,140.953c0-1.6,1.282-2.903,2.886-2.903
	c1.603,0,2.909,1.304,2.909,2.903c0,1.588-1.306,2.89-2.909,2.89C193.125,143.843,191.842,142.541,191.842,140.953z"/>
<path fill="#7F5026" d="M197.637,140.953c0-1.6-1.306-2.903-2.909-2.903c-1.604,0-2.886,1.304-2.886,2.903
	c0,1.588,1.282,2.89,2.886,2.89C196.331,143.843,197.637,142.541,197.637,140.953z"/>
<path fill="#FFFFFF" d="M209.062,247.713c2.43,3.076,6.537,36.85,6.565,59.388c8.944-3.243,17.495-7.306,25.57-12.088
	c-20.496-43.077-32.74-48.823-38.405-51.272c0.021,0.043,0.042,0.083,0.063,0.126C205.841,245.301,208.247,246.681,209.062,247.713z
	"/>
<path fill="#FFFFFF" d="M188.035,304.883l1.567,8.985c0.244-0.006,0.502-0.011,0.79-0.015c0.025-0.005,0.049-0.01,0.074-0.015
	c6.977-1.236,13.785-2.955,20.398-5.106c0.002-0.002,0.005-0.002,0.008-0.003c-0.262-0.478-0.524-0.952-0.786-1.441
	c-2.261-4.218-6.283-8.374-10.446-12.389C196.632,296.984,192.371,300.302,188.035,304.883z"/>
<path fill="#FFFFFF" d="M188.022,313.931c0.193-0.022,0.763-0.044,1.58-0.062l-1.567-8.985c-2.796,2.955-5.621,6.436-8.16,10.449
	c2.394-0.253,4.773-0.556,7.133-0.918C186.977,314.07,186.995,314.044,188.022,313.931z"/>
<path fill="#FFFFFF" d="M210.086,307.288c0.262,0.489,0.523,0.964,0.786,1.441c1.596-0.52,3.182-1.059,4.755-1.629
	c-0.028-22.538-4.135-56.312-6.565-59.388c-0.814-1.032-3.22-2.412-6.207-3.847c3.57,7.392,5.202,18.502,0.929,35.058
	c0,0-10.401-3.961-14.983,0c0,0,16.513,5.25,15.068,13.309c0,0-1.657,0.885-4.229,2.667
	C203.803,298.914,207.825,303.07,210.086,307.288z"/>
<path fill="#FFFFFF" d="M129.732,241.312c0.55-0.378,1.11-0.765,1.674-1.151c-0.014,0.008-0.026,0.016-0.04,0.023
	c-0.049,0.028-0.094,0.057-0.143,0.084c-0.5,0.294-0.988,0.585-1.47,0.874c-0.112,0.067-0.231,0.136-0.341,0.203
	C129.454,241.376,129.562,241.365,129.732,241.312z"/>
<path fill="#FFFFFF" d="M129.128,241.516c-3.084,1.878-5.623,3.62-6.49,4.716c1.463-1.028,3.619-2.522,6.029-4.185
	C128.84,241.846,128.992,241.671,129.128,241.516z"/>
<path fill="#FFFFFF" d="M134.922,277.627c-0.662,2.103-1.364,4.23-2.095,6.366c1.303-0.763,2.725-1.537,4.088-2.204
	c0.958-0.47,1.884-0.966,2.717-1.343c1.517-0.686,2.704-0.888,3.205-1.409c-0.339-0.259-0.703-0.484-1.091-0.67
	c-0.553-0.215-1.152-0.42-1.776-0.594c-0.902-0.2-1.858-0.288-2.827-0.285C136.399,277.491,135.651,277.543,134.922,277.627z"/>
<path fill="#FFFFFF" d="M129.732,241.312c-0.17,0.054-0.279,0.064-0.32,0.033c-0.095,0.057-0.191,0.114-0.284,0.171
	c-0.136,0.155-0.289,0.33-0.461,0.531C129.018,241.805,129.373,241.56,129.732,241.312z"/>
<path fill="#FFFFFF" d="M146.016,307.82l-1.347,7.133l-0.01,0.052c2.482,0.31,4.983,0.561,7.502,0.749
	c-1.105-1.632-2.255-3.199-3.423-4.688C147.839,309.938,146.93,308.85,146.016,307.82z"/>
<path fill="#FFFFFF" d="M121.204,251.641c3.335-4.648,6.015-7.909,7.464-9.594c-2.411,1.662-4.566,3.156-6.029,4.185
	c0,0-0.001,0.002-0.002,0.002C122.156,246.843,121.67,248.767,121.204,251.641z"/>
<path fill="#FFFFFF" d="M131.039,240.747c0.14-0.21,0.281-0.417,0.423-0.62c-0.019,0.011-0.037,0.022-0.056,0.033
	c-0.563,0.387-1.124,0.773-1.674,1.151C130.018,241.224,130.463,241.03,131.039,240.747z"/>
<path fill="#FFFFFF" d="M129.573,293.411L129.573,293.411h-0.009h-0.01C129.554,293.411,129.565,293.411,129.573,293.411
	L129.573,293.411z"/>
<path fill="#FFFFFF" d="M132.667,284.229c0.003-0.002,0.006-0.229,0.008-0.229c0.001,0,0.325,0,0.325,0v0.22
	c0,0.007-0.166,0.124-0.169,0.13c-0.009,0.027-0.1,0.11-0.109,0.138c-0.007,0.021-0.055,0.068-0.062,0.089
	c0.019-0.012,0.017-0.011,0.037-0.022c0.003-0.008,0.153-0.011,0.155-0.019c0.007-0.021,0.148,0.053,0.148,0.078
	c0,0.006,0,0.012,0,0.008c0-0.027-0.168,0.146-0.159,0.119c0.002-0.008-0.139,0.26-0.137,0.26h0.027c0,0,0.054-0.361,0.053-0.359
	c0.001-0.002,0.036-0.178,0.066-0.251c-0.031-0.023,0.093-0.081,0.094-0.082c0.003-0.002,0.056-0.183,0.056-0.183v-0.007
	c0-1.916,1.338-4.279,2.029-6.48c-0.251,0.028-0.581,0.06-0.827,0.096c-0.948,2.587-1.856,5.088-2.852,7.707
	C131.78,285.059,132.191,284.578,132.667,284.229z M132.667,284.439v0.008h0C132.667,284.447,132.667,284.441,132.667,284.439z"/>
<polygon fill="#FFFFFF" points="132.667,284.439 132.667,284.447 132.667,284.447 "/>
<path fill="#FFFFFF" d="M128.07,292.552c-0.471-2.607,0.945-4.919,3.07-6.856c0.007-0.019,0.015-0.038,0.022-0.058
	c1.01-2.648,2-5.291,2.96-7.906c-3.266,0.482-5.98,1.512-5.98,1.512c-4.996-19.357-1.916-31.267,2.896-38.496
	c-0.575,0.283-1.021,0.477-1.306,0.564c-0.359,0.248-0.714,0.493-1.065,0.735c-1.449,1.685-4.129,4.945-7.464,9.594
	c-1.892,11.642-3.483,38.888-3.207,57.567c1.115,0.35,2.236,0.686,3.362,1.011c2.305-5.569,4.7-11.476,7.05-17.464
	C128.188,292.62,128.07,292.552,128.07,292.552z"/>
<path fill="#FFFFFF" d="M189.622,313.98c0.255-0.044,0.514-0.082,0.77-0.127c-0.287,0.004-0.545,0.009-0.79,0.015L189.622,313.98z"
	/>
<path fill="#FFFFFF" d="M188.022,313.931c-1.027,0.113-1.046,0.14-1.014,0.483c0.875-0.135,1.744-0.284,2.614-0.434l-0.02-0.112
	C188.785,313.887,188.216,313.908,188.022,313.931z"/>
<path fill="#FFFFFF" d="M151.598,238.959c-0.121-0.733-0.341-1.595-0.642-2.559c-0.257-0.816-2.01-4.522-4.351-9.296
	c1.203,2.96,2.205,5.718,2.771,7.876C150.162,236.171,150.901,237.504,151.598,238.959z"/>
<linearGradient id="SVGID_1_" gradientUnits="userSpaceOnUse" x1="149.1021" y1="274.8867" x2="149.1021" y2="194.5679">
	<stop  offset="0" style="stop-color:#EDD3AA"/>
	<stop  offset="1" style="stop-color:#E2C099"/>
</linearGradient>
<path fill="url(#SVGID_1_)" d="M151.598,238.959c-0.121-0.733-0.341-1.595-0.642-2.559c-0.257-0.816-2.01-4.522-4.351-9.296
	c1.203,2.96,2.205,5.718,2.771,7.876C150.162,236.171,150.901,237.504,151.598,238.959z"/>
<path fill="#FFFFFF" d="M186.146,230.54c0.002-0.008,0.005-0.043,0.008-0.05c0.002-0.002,0.005-0.031,0.008-0.033
	c0.009-0.008,0.017-0.016,0.026-0.022c1.686-5.026,4.101-10.661,6.579-15.953c-1.109-0.469-2.257-1.007-3.446-1.623
	c-0.002,0.003-0.004,0.007-0.006,0.011c0.002,0,0.004,0.002,0.006,0.003c-5.48,9.121-10.185,22.943-10.329,23.368l1.623,1.882
	C182.202,234.882,184.032,232.283,186.146,230.54z"/>
<linearGradient id="SVGID_2_" gradientUnits="userSpaceOnUse" x1="185.8794" y1="274.8857" x2="185.8794" y2="194.5693">
	<stop  offset="0" style="stop-color:#EDD3AA"/>
	<stop  offset="1" style="stop-color:#E2C099"/>
</linearGradient>
<path fill="url(#SVGID_2_)" d="M186.146,230.54c0.002-0.008,0.005-0.043,0.008-0.05c0.002-0.002,0.005-0.031,0.008-0.033
	c0.009-0.008,0.017-0.016,0.026-0.022c1.686-5.026,4.101-10.661,6.579-15.953c-1.109-0.469-2.257-1.007-3.446-1.623
	c-0.002,0.003-0.004,0.007-0.006,0.011c0.002,0,0.004,0.002,0.006,0.003c-5.48,9.121-10.185,22.943-10.329,23.368l1.623,1.882
	C182.202,234.882,184.032,232.283,186.146,230.54z"/>
<path fill="#AC5424" d="M202.949,194.638c-5.589,8.182-9.985,13.12-9.985,13.12c0.154,0.259,0.07,0.134-0.008,0.01
	c-1.222,1.352-2.446,3.112-3.635,5.091c1.189,0.616,2.337,1.154,3.446,1.623c4.992-10.66,10.233-19.913,10.233-19.913
	C202.982,194.592,202.966,194.613,202.949,194.638z"/>
<linearGradient id="SVGID_3_" gradientUnits="userSpaceOnUse" x1="196.1606" y1="274.8857" x2="196.1606" y2="194.5685">
	<stop  offset="0" style="stop-color:#EDD3AA"/>
	<stop  offset="1" style="stop-color:#E2C099"/>
</linearGradient>
<path fill="url(#SVGID_3_)" d="M202.949,194.638c-5.589,8.182-9.985,13.12-9.985,13.12c0.154,0.259,0.07,0.134-0.008,0.01
	c-1.222,1.352-2.446,3.112-3.635,5.091c1.189,0.616,2.337,1.154,3.446,1.623c4.992-10.66,10.233-19.913,10.233-19.913
	C202.982,194.592,202.966,194.613,202.949,194.638z"/>
<path fill="#EDD3AA" d="M189.314,212.869c-0.479-0.248-0.965-0.519-1.457-0.792c-27.492,25.489-44.208,5.316-49.41-3.083
	c-0.027,0.042-0.053,0.075-0.08,0.115c0,0,0,0-0.001,0c2.1,4.256,5.633,11.586,8.236,17.988c0,0.001,0.001,0.003,0.001,0.004
	s0.001,0.002,0.002,0.003c2.341,4.773,4.094,8.479,4.351,9.296c0.301,0.964,0.521,1.825,0.642,2.559
	c0.004,0.029,0.012,0.053,0.016,0.081c3.766,7.89,6.251,19.96,7.881,31.96h13.312c1.468-13,3.894-24.84,7.807-32.83l-1.629-1.914
	c0,0,0.004-0.011,0.007-0.018c0.144-0.425,4.849-14.246,10.329-23.367C189.319,212.87,189.316,212.869,189.314,212.869z"/>
<linearGradient id="SVGID_4_" gradientUnits="userSpaceOnUse" x1="161.1396" y1="275.5889" x2="161.1396" y2="183.042">
	<stop  offset="0" style="stop-color:#EDD3AA"/>
	<stop  offset="1" style="stop-color:#E2C099"/>
</linearGradient>
<path fill="url(#SVGID_4_)" d="M189.314,212.869c-0.479-0.248-0.965-0.519-1.457-0.792c-22.96,22.171-44.985,1.539-48.706-2.97
	c-2.697-3.826-6.192-9.448-6.193-9.448c1.122,5.339,11.041,21.036,13.644,27.438c0,0.001,0.001,0.003,0.001,0.004
	s0.001,0.002,0.002,0.003c2.341,4.773,4.094,8.479,4.351,9.296c0.301,0.964,0.521,1.825,0.642,2.559
	c0.004,0.029,0.012,0.053,0.016,0.081c3.766,7.89,6.251,19.96,7.881,31.96h13.312c1.468-13,3.894-24.84,7.807-32.83l-1.629-1.914
	c0,0,0.004-0.011,0.007-0.018c0.144-0.425,4.849-14.246,10.329-23.367C189.319,212.87,189.316,212.869,189.314,212.869z"/>
<linearGradient id="SVGID_5_" gradientUnits="userSpaceOnUse" x1="137.5723" y1="207.5049" x2="137.5723" y2="207.5049">
	<stop  offset="0" style="stop-color:#EDD3AA"/>
	<stop  offset="1" style="stop-color:#E2C099"/>
</linearGradient>
<path fill="url(#SVGID_5_)" d="M137.572,207.505"/>
<path fill="#EDD3AA" d="M137.572,207.505c0.232,0.466,0.498,1.003,0.794,1.603"/>
<linearGradient id="SVGID_6_" gradientUnits="userSpaceOnUse" x1="137.9697" y1="274.8789" x2="137.9697" y2="194.5691">
	<stop  offset="0" style="stop-color:#EDD3AA"/>
	<stop  offset="1" style="stop-color:#E2C099"/>
</linearGradient>
<path fill="url(#SVGID_6_)" d="M138.366,209.107c0.027-0.039-0.552-1.169-0.794-1.603
	C137.804,207.971,138.07,208.508,138.366,209.107z"/>
<path fill="#EDD3AA" d="M192.964,207.758c0,0,4.396-4.938,9.985-13.12c-5.345,7.348-10.377,13.06-15.092,17.432
	c0.494,0.275,0.982,0.54,1.463,0.789c1.188-1.979,2.413-3.739,3.635-5.091C192.88,207.647,192.81,207.527,192.964,207.758z"/>
<linearGradient id="SVGID_7_" gradientUnits="userSpaceOnUse" x1="195.4033" y1="274.8877" x2="195.4033" y2="194.5685">
	<stop  offset="0" style="stop-color:#EDD3AA"/>
	<stop  offset="1" style="stop-color:#E2C099"/>
</linearGradient>
<path fill="url(#SVGID_7_)" d="M192.964,207.758c0,0,4.396-4.938,9.985-13.12c-5.345,7.348-10.377,13.06-15.092,17.432
	c0.494,0.275,0.982,0.54,1.463,0.789c1.188-1.979,2.413-3.739,3.635-5.091C192.88,207.647,192.81,207.527,192.964,207.758z"/>
<path fill="#EDD3AA" d="M192.964,207.758c-0.002,0.003-0.005,0.006-0.008,0.01C193.034,207.892,193.118,208.017,192.964,207.758z"/>
<linearGradient id="SVGID_8_" gradientUnits="userSpaceOnUse" x1="193.0029" y1="274.8223" x2="193.0029" y2="194.5811">
	<stop  offset="0" style="stop-color:#EDD3AA"/>
	<stop  offset="1" style="stop-color:#E2C099"/>
</linearGradient>
<path fill="url(#SVGID_8_)" d="M192.964,207.758c-0.002,0.003-0.005,0.006-0.008,0.01
	C193.034,207.892,193.118,208.017,192.964,207.758z"/>
<path fill="#EDD3AA" d="M192.956,207.768c0.003-0.004,0.006-0.007,0.008-0.01C192.81,207.527,192.88,207.647,192.956,207.768z"/>
<linearGradient id="SVGID_9_" gradientUnits="userSpaceOnUse" x1="192.918" y1="274.8779" x2="192.918" y2="194.5708">
	<stop  offset="0" style="stop-color:#EDD3AA"/>
	<stop  offset="1" style="stop-color:#E2C099"/>
</linearGradient>
<path fill="url(#SVGID_9_)" d="M192.956,207.768c0.003-0.004,0.006-0.007,0.008-0.01C192.81,207.527,192.88,207.647,192.956,207.768
	z"/>
<path fill="#243A85" d="M159.737,272.99c0.074,0.605,0.152,1.244,0.222,1.85c0.003,0.031,0.007,0.16,0.011,0.16
	c0.001,0,0.002,0,0.003,0c0.004,0,0.009,0,0.014,0c0.001,0,0.001,0,0.002,0c0.002,0,0.004,0,0.006,0c3.746,0,7.933,0,12.096,0
	c0.028,0-0.092,0-0.092,0s0-0.057,0-0.058s0-0.002,0-0.002c0-0.001,0.008-0.002,0.02-0.002c-0.011,0-0.02-0.001-0.02-0.002
	s0-0.001,0-0.002c0-0.009,0.197-0.018,0.198-0.026c0.001-0.008,0.052-0.011,0.063-0.01c0.032,0.002,0.117,0.062,0.12,0.07
	c0,0.002-0.19,0.031-0.189,0.031H172l0,0h0.202h0.101l0,0c-0.026,0-0.129-0.135-0.125-0.173c-0.009,0-0.178-0.037-0.178-0.036
	c0-0.002,0-0.002,0-0.004c0-0.046,0.211-0.101,0.216-0.147c0.122-1.22,0.453-2.64,0.592-3.64h-13.312
	C159.578,272,159.659,272.319,159.737,272.99z"/>
<linearGradient id="SVGID_10_" gradientUnits="userSpaceOnUse" x1="166.1519" y1="275" x2="166.1519" y2="194.296">
	<stop  offset="0" style="stop-color:#EDD3AA"/>
	<stop  offset="1" style="stop-color:#E2C099"/>
</linearGradient>
<path fill="url(#SVGID_10_)" d="M159.737,272.99c0.074,0.605,0.152,1.244,0.222,1.85c0.003,0.031,0.007,0.16,0.011,0.16
	c0.001,0,0.002,0,0.003,0c0.004,0,0.009,0,0.014,0c0.001,0,0.001,0,0.002,0c0.002,0,0.004,0,0.006,0c3.746,0,7.933,0,12.096,0
	c0.028,0-0.092,0-0.092,0s0-0.057,0-0.058s0-0.002,0-0.002c0-0.001,0.008-0.002,0.02-0.002c-0.011,0-0.02-0.001-0.02-0.002
	s0-0.001,0-0.002c0-0.009,0.197-0.018,0.198-0.026c0.001-0.008,0.052-0.011,0.063-0.01c0.032,0.002,0.117,0.062,0.12,0.07
	c0,0.002-0.19,0.031-0.189,0.031H172l0,0h0.202h0.101l0,0c-0.026,0-0.129-0.135-0.125-0.173c-0.009,0-0.178-0.037-0.178-0.036
	c0-0.002,0-0.002,0-0.004c0-0.046,0.211-0.101,0.216-0.147c0.122-1.22,0.453-2.64,0.592-3.64h-13.312
	C159.578,272,159.659,272.319,159.737,272.99z"/>
<path fill="#FFFFFF" d="M184.199,242.213l-0.281-0.292c0.035,0.504,0.106,0.968,0.216,1.39l0.132-0.982
	c-0.026-0.027-0.05-0.115-0.076-0.115H184.199z"/>
<path fill="#FFFFFF" d="M172.413,274.934c-0.002-0.012-0.006-0.021-0.008-0.002c0,0.002,0,0.002-0.001,0.004l0,0h0
	c0.001,0,0.002,0,0.003,0C172.409,274.935,172.411,274.934,172.413,274.934z"/>
<path fill="#FFFFFF" d="M202.792,243.74c-0.635-0.274-1.19-0.509-1.662-0.749c-0.019-0.01-0.038,0.006-0.056,0.042
	c0.612,0.278,1.206,0.557,1.781,0.833C202.834,243.823,202.812,243.783,202.792,243.74z"/>
<polygon fill="#FFFFFF" points="188.035,304.778 188.031,304.783 188.035,304.811 "/>
<path fill="#FFFFFF" d="M179,278.572v-0.023c0-0.001,0.19,0.033,0.192,0.032c0.823-0.49,1.799-0.581,2.552-1.581h-2.15L179,278.572z
	"/>
<path fill="#FFFFFF" d="M192.312,268.078c0,0.015-0.001,0.028-0.001,0.042c0.001-0.001,0.002-0.001,0.002-0.001
	C192.314,268.106,192.312,268.092,192.312,268.078z"/>
<path fill="#FFFFFF" d="M153.04,276.89c-0.175-0.059-0.348-0.244-0.519-0.424c-0.078-0.063-0.158-0.125-0.234-0.19l0.105,0.634
	h0.672C153.056,276.903,153.048,276.896,153.04,276.89z"/>
<polygon fill="#FFFFFF" points="145.385,232.565 145.385,232.565 145.386,232.574 "/>
<path fill="#FFFFFF" d="M131.467,240.115c0.013-0.02,0.027-0.036,0.041-0.055c0.021-0.027,0.042-0.056,0.063-0.084
	c0.005-0.006,0.01-0.012,0.014-0.019c-0.074,0.051-0.147,0.102-0.22,0.152c-0.001,0,0.011,0,0.021,0.001
	c0.018,0.001,0.041,0.002,0.06,0.003C131.458,240.114,131.468,240.114,131.467,240.115z"/>
<path fill="#FFFFFF" d="M145.656,235.664l0,0.002c0-0.006,0-0.013,0-0.019l-0.001-0.01
	C145.655,235.624,145.656,235.656,145.656,235.664z"/>
<path fill="#FFFFFF" d="M145.58,233.804l0.002,0.011c-0.046-0.448-0.106-0.874-0.197-1.249l0.001,0.009L145.58,233.804z"/>
<path fill="#FFFFFF" d="M145.348,232.588c0.022-0.014,0.037-0.021,0.037-0.022c0,0-0.015,0.008-0.038,0.02L145.348,232.588z"/>
<path fill="#FFFFFF" d="M144.092,233.231l-0.048,0.137c0.548-0.326,0.932-0.568,1.135-0.697
	C144.968,232.779,144.604,232.967,144.092,233.231z"/>
<path fill="#FFFFFF" d="M129.564,293.411h0.008h0h0c-0.008,0-0.019,0-0.019,0H129.564z"/>
<path fill="#FFFFFF" d="M145.344,235.716l0.122,0.612c0.009-0.219,0.023-0.446,0.026-0.655
	C145.48,235.687,145.368,235.701,145.344,235.716z"/>
<path fill="#FFFFFF" d="M128.481,292.801C128.482,292.801,128.482,292.801,128.481,292.801c0.232,0.143,0.332,0.346,0.737,0.609
	c0.001,0.001-0.218,0.001-0.218,0.002c0-0.001,0-0.002,0-0.003c0-0.022,0.239-0.044,0.247-0.066c0-0.002,0.112-0.003,0.113-0.004
	c0.001-0.003,0.057-0.006,0.058-0.007c1.089-2.903,2.173-5.822,3.175-8.729c0.007-0.021,0.029-0.041,0.036-0.062
	c0.009-0.027,0.026-0.055,0.036-0.082c0.002-0.007,0.008-0.233,0.011-0.24l0.003-0.22c0,0-0.001,0-0.002,0
	c-0.002,0-0.005,0.227-0.008,0.229c-0.475,0.35-0.927,0.829-1.356,1.211c-0.056,0.05-0.115,0.151-0.169,0.201
	c-0.898,2.355-1.812,4.74-2.732,7.087c0.021,0.013,0.046,0.042,0.068,0.057C128.479,292.785,128.48,292.8,128.481,292.801
	L128.481,292.801z"/>
<path fill="#FFFFFF" d="M131.039,240.747"/>
<path fill="#FFFFFF" d="M128.07,292.552c0,0,0.118,0.068,0.338,0.203c0.921-2.347,1.834-4.704,2.732-7.06
	C129.016,287.633,127.6,289.944,128.07,292.552z"/>
<g>
	<path fill="#FFFFFF" d="M147.554,246.315l1.132,7.18c-0.016-3.887,0.452-7.091,0.815-9.888
		C148.791,244.461,148.139,245.365,147.554,246.315z"/>
	<path fill="#FFFFFF" stroke="#808080" stroke-linecap="square" stroke-linejoin="bevel" stroke-miterlimit="10" d="
		M160.511,281.155c0.031,0.003,0.063,0.345,0.094,0.345c0,0,0.001,0,0.002,0c-0.123-2-0.253-2.95-0.392-4.259
		c-0.074-0.619-0.15-1.132-0.229-1.819c-0.005-0.039-0.009,0.078-0.014,0.078c-0.001,0-0.002,0-0.003,0c0,0-0.118-0.35-0.119-0.359
		c-0.003-0.043,0.052-0.195,0.048-0.227c-0.07-0.605-0.119-1.261-0.192-1.866c-0.081-0.661-0.127-1.344-0.212-2.006
		c-1.628-12.427-4.111-23.92-7.872-31.81c-0.004-0.026-0.006-0.057-0.01-0.083c-0.692-1.448-1.427-2.851-2.208-4.04
		c0-0.001-0.001-0.004-0.001-0.004c-0.004-0.007-0.015,0.207-0.024,0.199c-0.013-0.008-0.025,0.195-0.032,0.195c0,0,0.151,0,0.151,0
		v-0.324c0-0.014-0.072-0.107-0.076-0.124c-0.049-0.073-0.136-0.181-0.185-0.253c-0.597-0.881-1.237-1.68-1.886-2.367
		c-0.646-0.684-1.33-1.289-2.035-1.811c-0.138-0.102-0.279-0.21-0.419-0.307c0,0-0.003,0.051-0.004,0.07
		c-0.001,0.035-0.004,0.115-0.006,0.115c-0.001,0-0.002,0-0.003,0c0,0-5.925,1.432-11.213,7.182
		c-0.647,0.705-1.531,1.521-2.633,3.007c-4.812,7.229-7.703,19.168-2.708,38.524c0,0,2.169-0.997,6.169-1.48c0,0,0-0.002,0-0.003
		c0-0.035,0.304-0.067,0.55-0.096c0.018-0.002-0.051-0.005-0.033-0.007c0-0.002-0.261-0.002-0.261-0.004
		c0.002-0.007-0.255-0.014-0.255-0.021c0-0.001,0-0.002,0-0.002c1-1.736,0.877-1.736,0.332,0c0.721-0.081,1.518-0.252,2.251-0.253
		c0.971-0.002,1.956,0.176,2.861,0.426c0.624,0.174,1.236,0.691,1.789,0.906c0.44,0.172,0.866-0.18,1.242,0.82c0,0-0.001,0-0.001,0
		c-0.036,0-0.087-0.201-0.137-0.15c-0.5,0.523-1.688,0.568-3.205,1.253c-0.833,0.378-1.758,0.795-2.717,1.265
		c-1.363,0.667-2.785,1.401-4.088,2.165c-0.004,0.003-0.1,0.149-0.104,0.152c-0.043,0.025-0.224-0.396-0.224,0.258v-0.003
		c0,0,0.022,0.001,0.02,0.004c-0.001,0.001-0.02-0.055-0.02-0.03v-0.041c0,0.073,0.109,0.537,0.109,0.539
		c0-0.002,0.122,0.589,0.122,0.589h-0.027c-0.002,0-0.019-0.517-0.021-0.509c-0.009,0.026,0.011-0.212,0.001-0.185
		c-0.001,0.004-0.002-0.093-0.003-0.099c-0.002-0.006-0.065-0.059-0.066-0.054c-1.006,2.933-2.115,5.792-3.115,8.72
		c0-0.011,0-0.016,0-0.021c0-0.003,0.136,0.131,0.15,0.16c0.007,0.017-0.15-0.134-0.15-0.139c0,0.018,0,0.036,0,0.035
		c0,0.001,0,0.001,0,0.002s-0.028,0.001-0.027,0.002c0.462,0.301,1.022,0.688,1.678,1.143c3.402,2.367,9.158,6.799,14.854,13.209
		l0.004,0.02c0.914,1.028,1.827,2.134,2.726,3.28c1.168,1.489,2.32,3.057,3.425,4.688c0.013,0.019,0.026,0.037,0.039,0.056
		c0.063,0.004,0.128,0.01,0.192,0.015c2.004,0.153,4.021,0.51,6.046,0.518c0.031,0,0.062,0.158,0.094,0.158c0.003,0,0.007,0,0.01,0
		c0.007,0,0.013,0,0.02,0c0.001,0,0.001,0,0.002,0c0.005,0,0.011,0,0.018,0c1.148,0,2.336-0.168,3.505-0.172
		c0.114-0.002,0.415-0.141,0.415-0.14v0.312h-0.236c0-9-0.418-19.182-1.219-29.543l-0.088-0.453
		c-0.138-1.855-0.239-3.754-0.415-5.606c-0.033-0.01-0.031,0.041-0.063,0.03 M157.772,274.945 M149.455,235.386 M149.264,235.5
		h-0.002H149.264z M144.353,230.908v0.002l0.275-0.002l-0.031,0.097C144.047,231.38,144.353,230.908,144.353,230.908z
		 M158.559,316.171l-0.029-0.186l0.032,0.183L158.559,316.171z"/>
</g>
<g>
	<path fill="#FFFFFF" d="M184.58,245.661l-1.133,7.179c0.017-3.886-0.451-7.091-0.814-9.887
		C183.343,243.807,183.995,244.711,184.58,245.661z"/>
	<path fill="#FFFFFF" stroke="#808080" stroke-linecap="square" stroke-linejoin="round" stroke-miterlimit="10" d="M171.67,280.169
		c-0.033,0.011-0.016,0.023-0.049,0.032c-0.175,1.854-0.247,3.711-0.385,5.566l-0.332,0.37c-0.801,10.362-1.404,20.624-1.404,29.378
		c0,0,0,0.001,0,0.002s0,0.017,0,0.017c0-0.001,0.367-0.036,0.482-0.034c1.168,0.006,2.423,0,3.572,0c0.006,0,0.012,0,0.018,0
		c0,0,0,0,0.001,0c0.006,0,0.013,0,0.019,0c0.004,0,0.008,0,0.011,0c0.031,0,0.063,0.014,0.094,0.014
		c2.025-0.008,4.042-0.281,6.046-0.434c0.064-0.005,0.129,0.034,0.192,0.029c0.013-0.019,0.029-0.014,0.041-0.032
		c1.105-1.632,2.26-3.188,3.428-4.679c0.899-1.146,1.818-2.245,2.732-3.274l0.017-0.016c5.696-6.41,11.477-10.84,14.88-13.207
		c0.655-0.455,1.424-1.026,1.431-1.043c0.013-0.029,0.15-0.149,0.15-0.14c-1.31-2.927-2.1-5.812-3.106-8.744
		c-0.002-0.005-0.112,0.021-0.113,0.028c-0.001,0.005,0.025,0.051,0.024,0.047c-0.009-0.027,0.037,0.001,0.038,0.002
		c-0.001-0.002,0.042-0.261,0.042-0.334c0,0,0,0.041,0,0.04c0-0.023-0.042-0.11-0.042-0.112c-0.004-0.002,0.039-0.146,0.036-0.146
		c0,0-0.021,0-0.021,0c-0.043,0-0.1-0.096-0.144-0.121c-0.004-0.003-0.014-0.088-0.019-0.09c-1.302-0.764-2.727-1.482-4.09-2.148
		c-0.958-0.47-1.885-0.908-2.718-1.285c-1.517-0.686-2.704-0.819-3.206-1.341c-0.05-0.053-0.102-0.015-0.137-0.015h-0.001
		c0.376-1,0.799-0.477,1.24-0.646c0.553-0.215,1.163-0.573,1.786-0.746c0.905-0.251,1.887-0.423,2.858-0.42
		c0.734,0.001,1.472,0.175,2.192,0.255c-0.544-1.736-0.734-1.733,0.266,0.003c0,0.001,0,0.002,0,0.002
		c0,0.003-0.097,0.007-0.14,0.012c-0.064,0.007-0.174,0.013-0.174,0.013c0.018,0.002,0.057,0.005,0.073,0.008
		c0.246,0.028,0.504,0.061,0.745,0.096c0,0.001,0.004,0.002,0.004,0.003c3.266,0.482,5.982,1.513,5.982,1.513
		c4.995-19.356,1.916-31.264-2.896-38.493c-1.102-1.485-1.985-2.039-2.632-2.742c-5.288-5.752-11.213-6.855-11.213-6.855
		c-0.001,0-0.002,0-0.004,0s-0.006-0.406-0.008-0.441c0-0.021-0.005-0.3-0.006-0.299c-0.14,0.097-0.284,0.154-0.421,0.256
		c-0.706,0.522-1.395,1.103-2.041,1.786c-0.649,0.688-1.3,1.475-1.897,2.355c-0.048,0.071-0.18,0.173-0.229,0.246
		c-0.005,0.017-0.144,0.104-0.144,0.118V234.5c0,0,0.285,0,0.285,0c-0.006,0-0.02-0.029-0.032-0.023
		c-0.009,0.008-0.02-0.079-0.024-0.073c0,0.001-0.001,0.025-0.001,0.026c-0.781,1.188-1.515,2.602-2.208,4.05
		c-0.004,0.026-0.006,0.06-0.01,0.086c-3.76,7.89-6.243,19.377-7.872,31.805c-0.085,0.662-0.132,1.333-0.212,1.993
		c-0.074,0.606-0.122,1.233-0.192,1.839c-0.004,0.031,0.052,0.067,0.048,0.11c0,0.011-0.119,0.188-0.118,0.188
		c-0.001,0-0.002,0-0.003,0c-0.004,0-0.009-0.029-0.014,0.012c-0.079,0.686-0.155,1.254-0.229,1.872
		c-0.138,1.31-0.269,3.116-0.392,4.116c0.001,0,0.001,0,0.002,0c0.031,0,0.062-0.17,0.094-0.172 M174.361,274.291 M182.678,234.73
		 M182.872,234.5h-0.002H182.872z M187.537,230.35l-0.031-0.096c0,0,0.275,0.001,0.275,0.002v-0.002
		C187.781,230.254,188.087,230.726,187.537,230.35z M173.572,315.514l0.031-0.184l-0.029,0.186L173.572,315.514z"/>
</g>
<path fill="#FFFFFF" d="M148.687,253.495c0.017,4.048,0.569,8.842,2.316,14.683L148.687,253.495z"/>
<polygon fill="#EDD3AA" points="245.08,331.708 245.084,331.705 245.08,331.707 "/>
<path fill="#E2C099" d="M172.136,184.639c0.018,0.004,0.037,0.01,0.055,0.014c-0.007-0.004-0.014-0.008-0.021-0.012
	C172.159,184.635,172.148,184.646,172.136,184.639z"/>
<polygon fill="#E2C099" points="174.534,185.26 174.54,185.197 174.521,185.258 174.53,185.26 "/>
<path fill="#E2C099" d="M180.846,185.011c0.025-0.017,0.051-0.034,0.075-0.051c-0.01,0.011-0.019,0.021-0.029,0.032
	c0.088-0.036,0.163-0.067,0.231-0.096c0.09-0.053,0.185-0.104,0.269-0.157c-0.223,0.054-0.448,0.13-0.691,0.213
	c-0.003,0.039-0.008,0.08-0.01,0.118C180.742,185.051,180.801,185.028,180.846,185.011z"/>
<path fill="#E2C099" d="M181.393,184.739c0,0-0.03,0.028-0.075,0.07C181.451,184.746,181.488,184.717,181.393,184.739z"/>
<path fill="#E2C099" d="M496.123,181.952c-11.293-3.897-16.117-1.918-16.227-1.951c-7.654-2.25-14.881,2.044-15.414,2.32
	c-0.063-0.026-0.107-0.045-0.107-0.045c0.016,0.012,0.032,0.046,0.049,0.075c0.008,0.014,0.015,0.029,0.021,0.034
	c0.057,0.038,0.109,0.09,0.174,0.109c6.002,1.767,25.038,0.467,31.227-0.429c0.003-0.039-0.02-0.276-0.016-0.315
	C495.828,181.752,496.125,181.952,496.123,181.952z"/>
<path fill="#E2C099" d="M181.318,184.81c0.045-0.042,0.075-0.07,0.075-0.07c-0.084,0.054-0.179,0.104-0.269,0.157
	C181.205,184.861,181.268,184.833,181.318,184.81z"/>
<path fill="#E2C099" d="M180.607,185.171c0.026-0.013,0.053-0.025,0.079-0.038c0.001-0.005,0.001-0.011,0.001-0.016
	C180.661,185.135,180.634,185.153,180.607,185.171z"/>
<path fill="#E2C099" d="M180.846,185.011c-0.052,0.034-0.107,0.071-0.159,0.106c0,0.005,0,0.011-0.001,0.016
	c0.046-0.023,0.095-0.045,0.14-0.068c0.022-0.025,0.044-0.048,0.066-0.072C180.876,184.998,180.863,185.004,180.846,185.011z"/>
<path fill="#E2C099" d="M180.677,185.226c0.05-0.055,0.099-0.105,0.148-0.161c-0.045,0.023-0.094,0.045-0.14,0.068
	C180.683,185.163,180.68,185.195,180.677,185.226z"/>
<path fill="#E2C099" d="M180.921,184.96c-0.024,0.017-0.05,0.034-0.075,0.051c0.017-0.007,0.03-0.013,0.046-0.019
	C180.902,184.98,180.911,184.971,180.921,184.96z"/>
<path fill="#8CC63F" d="M163.698,11.562c-84.12,0-152.313,68.193-152.313,152.313c0,38.992,14.66,74.558,38.759,101.5
	c4.446,4.971,9.209,9.649,14.266,14c1.218,1.048,2.457,2.072,3.708,3.083c4.574,3.691,9.364,7.124,14.351,10.274
	c3.373,2.131,6.835,4.13,10.38,5.996c8.624-29.189,23.154-46.396,27.854-51.096c0.095-0.096,0.813-0.612,1.937-1.401
	c0.867-1.096,3.406-2.838,6.49-4.716c0.739-0.843,0.946-1.033,0.454-0.505c-0.124,0.132-0.178,0.234-0.186,0.301
	c0.002,0.013,0.006,0.025,0.016,0.033c0.11-0.067,0.229-0.136,0.341-0.203c0.48-0.357,0.972-0.798,1.47-0.874
	c0.048-0.027,0.094-0.056,0.143-0.084c0.014-0.008,0.026-0.016,0.04-0.023c0.007-0.006,0.016-0.011,0.023-0.017
	c-0.03-0.005-0.066-0.071-0.064-0.072c0.007-0.006,0.014-0.071,0.021-0.071c-0.01,0-0.022,0-0.021,0c0.073,0,0.146-0.047,0.22-0.098
	c-0.004,0.008-0.009,0.041-0.014,0.047c0.005-0.003,0.009,0.007,0.014,0.004c-0.026,0.035-0.052,0.07-0.078,0.105
	c0.026-0.024,0.052-0.048,0.078-0.065c0.674-0.941,1.372-1.912,2.086-2.688c5.288-5.751,11.213-7.305,11.213-7.305
	c0.001,0,0.002,0,0.003,0c0.002,0,0.055,0.094,0.057,0.095c0.002-0.001,0.055,0.151,0.055,0.151v-0.032
	c0,0.043-0.02,0.091,0.052,0.134c0.001-0.021-0.079-0.039-0.078-0.038c0.14,0.097,0.237,0.199,0.374,0.301
	c0.763,0.517,1.399,1.12,2.005,1.801c0.649,0.688,1.26,1.466,1.857,2.348c-0.571-2.123-1.495-4.791-2.656-7.646
	c0-0.001,0.024-0.006,0.023-0.007s0.012-0.005,0.011-0.006c-0.1-0.204-0.202-0.419-0.305-0.63c0.087,0.21,0.175,0.42,0.259,0.628
	c0-0.001-0.002-0.003-0.002-0.003c-0.007-0.015-0.015-0.029-0.021-0.043c0.002,0.006,0.004,0.011,0.006,0.017
	c-2.565-5.229-5.886-11.761-8.665-17.291c-0.411,0.494-0.688,0.701-0.688,0.701c-8.142,5.074-14.612,6.723-19.598,6.7
	c-6.572-0.03-10.564-2.963-12.407-4.775c-0.19-0.188-0.358-0.363-0.503-0.522c-0.483-0.529-0.716-0.878-0.716-0.878
	c7.533-2.838,9.726-7.681,9.402-12.776l-2.561,1.875c-12.412,7.89-23.023-3.384-23.023-3.384
	c10.474,4.284,17.603-5.157,20.912-11.136c-0.397-0.65-0.796-1.27-1.188-1.854c-5.552,4.619-10.917,5.311-10.917,5.311
	c-16.645,5.892-15.351-16.067-15.351-16.067c7.196,9.278,12.864,5.307,16.171,0.85c-32.36-26.75-32.404-63.954-32.404-63.954
	c3.61-53.917,52.669-60.01,52.669-60.01c63.612-58.868,126.552,8.465,126.552,8.465c40.347,52.456,4.015,98.52-17.113,118.584
	c3.317,4.417,8.956,8.267,16.104-0.945c0,0,1.297,21.958-15.347,16.067c0,0-5.78-0.742-11.544-5.839
	c-0.05,0.038-0.103,0.079-0.151,0.116c3.464,5.979,10.436,14.527,20.496,10.412c0,0-10.599,11.273-23.016,3.384l-4.5-3.294
	c-0.841,5.604,1.012,11.099,9.237,14.195c0,0-7.467,11.153-25.61,3.479c-2.479,5.292-4.894,10.927-6.579,15.953
	c0.279-0.23,0.562-0.245,0.852-0.444c0,0,10.18,2.01,15.752,14.01c-0.001,0-0.001,0-0.001,0c0,0,0-0.129,0.001-0.129
	c5.665,2.449,17.909,8.13,38.405,51.207c44.782-26.522,74.814-75.324,74.814-131.144C316.011,79.814,247.817,11.562,163.698,11.562z
	"/>
<path fill="#E2C099" d="M169.531,187.878"/>
<path fill="#E2C099" d="M470.318,186.678c6.42,0.64,15.058,1.136,31.805-0.449c-4.105,4.444-10.424,5.296-16.755,5.47
	C477.695,191.909,475.031,189.428,470.318,186.678z"/>
<path fill="#FFFFFF" stroke="#808080" stroke-width="0.6546" stroke-miterlimit="10" d="M129.296,293.351"/>
<path fill="#FFFFFF" stroke="#808080" stroke-width="0.6546" stroke-miterlimit="10" d="M144.047,231.38"/>
<path fill="#FFFFFF" stroke="#808080" stroke-width="0.6546" stroke-miterlimit="10" d="M129.296,293.685"/>
<path fill="#FFFFFF" d="M185.687,273.635"/>
<path fill="#FFFFFF" d="M179.376,278.873"/>
<path fill="#FFFFFF" stroke="#808080" stroke-width="0.6546" stroke-linecap="square" stroke-miterlimit="10" d="M202.616,292.709"
	/>
<path fill="#FFFFFF" stroke="#808080" stroke-width="0.6546" stroke-linecap="square" stroke-linejoin="round" stroke-miterlimit="10" d="
	M199.412,284.022"/>
<path fill="#EDD3AA" d="M132.91,145.868"/>
<path fill="#EDD3AA" d="M138.366,209.107"/>
<path fill="#EDD3AA" d="M138.432,208.965"/>
<line fill="#EDD3AA" x1="132.91" y1="145.868" x2="132.632" y2="145.722"/>
<path fill="#EDD3AA" d="M137.572,207.505"/>
<path fill="#EDD3AA" d="M137.82,207.758"/>
<path fill="#EDD3AA" d="M194.733,125.068"/>
<path fill="none" stroke="#C69C6D" stroke-width="0.6546" stroke-linecap="round" stroke-miterlimit="10" d="M470.619,186.439
	c0,0,13.42,2.912,31.504-0.543"/>
<polygon fill="#7F5026" points="132.401,132.216 132.125,135.488 128.46,136.988 127.566,133.684 "/>
<path fill="#FFFFFF" d="M147.173,185.378l37.403-1.364c0,0-7.244,11.868-18.994,11.868
	C153.604,195.882,147.173,185.378,147.173,185.378z"/>
<path fill="#E2C099" d="M184.907,183.876c-13.514-4.663-19.287-2.295-19.417-2.333c-9.16-2.692-17.806,2.444-18.446,2.775
	c-0.075-0.03-0.127-0.053-0.127-0.053c0.019,0.014,0.039,0.056,0.058,0.089c0.008,0.017,0.018,0.036,0.026,0.041
	c0.068,0.047,0.13,0.108,0.208,0.131c7.182,2.116,29.96,0.56,37.366-0.513c0.003-0.046-0.023-0.33-0.019-0.376
	C184.553,183.638,184.909,183.878,184.907,183.876z"/>
<path fill="#E2C099" d="M146.848,184.812c3.206,0,12.761,20.355,38.06-0.935c-4.913,5.317-11.443,14.045-19.018,14.254
	C156.707,198.383,152.808,195.423,146.848,184.812z"/>
>>>>>>> origin/timestamp-14268
</svg>
