<?xml version="1.0" encoding="utf-8"?>
<!-- Generator: Adobe Illustrator 15.1.0, SVG Export Plug-In . SVG Version: 6.00 Build 0)  -->
<!DOCTYPE svg PUBLIC "-//W3C//DTD SVG 1.1//EN" "http://www.w3.org/Graphics/SVG/1.1/DTD/svg11.dtd">
<svg version="1.1" xmlns="http://www.w3.org/2000/svg" xmlns:xlink="http://www.w3.org/1999/xlink" x="0px" y="0px"
	 width="325.312px" height="326.667px" viewBox="0 0 325.312 326.667" enable-background="new 0 0 325.312 326.667"
	 xml:space="preserve">
<g id="Layer_1">
	<g>
		<path fill="#FFFFFF" d="M116.616,308.744l-0.016,0.037c0,0,49.352,20.48,108.148-5.236C228.544,290.328,206.542,282,206.542,282
			h-74.018c0.534-1.424,1.08-2.855,1.598-4.268c-3.266,0.482-5.98,1.512-5.98,1.512c-4.996-19.356-1.916-31.267,2.896-38.496
			c-0.575,0.283-1.021,0.478-1.306,0.564c-0.359,0.248-0.714,0.493-1.065,0.734c0,0-0.001,0.001-0.001,0.002
			c-2.41,1.661-4.564,3.154-6.026,4.184c0,0-0.001,0.002-0.002,0.002c-0.481,0.609-0.967,2.532-1.433,5.405
			c0,0.001-0.001,0.001-0.001,0.002c0,0.001,0,0.001,0,0.002c-4.644,6.473-10.552,15.647-16.167,27.013
			c3.102,9.282,6.201,19.358,8.673,29.085C114.677,308.077,115.639,308.426,116.616,308.744z"/>
		<path fill="#FFFFFF" d="M103.126,273.035c0.633,1.832,1.271,3.709,1.909,5.618c5.616-11.364,11.523-20.54,16.167-27.013
			c0.467-2.871,0.953-4.794,1.433-5.406c-1.121,0.787-1.837,1.303-1.932,1.398C117.608,250.726,110.252,259.246,103.126,273.035z"/>
		<polygon fill="#FF2B00" points="202.792,244.003 202.791,244.001 202.791,244.003 		"/>
		<path fill="#FF2B00" d="M145.001,230.214c0,0.01,0,0.02,0,0.03l0,0.001V230.214z"/>
		<path fill="#FF2B00" d="M163.698,11.562c-84.12,0-152.313,68.193-152.313,152.312c0,38.992,14.66,74.559,38.759,101.5
			c4.446,4.972,9.209,9.649,14.266,14c1.218,1.049,2.457,2.072,3.708,3.084c4.574,3.69,9.364,7.123,14.351,10.273
			c0.59,0.373,1.198,0.719,1.794,1.084c-1.369-15.026-2.223-28.882-3.806-36.387c-4.976-23.593,10.74-16.196,10.74-16.196
			s5.705,13.782,11.929,31.801c7.126-13.789,14.482-22.308,17.576-25.401c0.095-0.096,0.814-0.612,1.937-1.401
			c-0.001,0-0.002,0.002-0.002,0.002c0,0,0,0.001-0.001,0.001c0.002-0.001,0.003-0.002,0.005-0.003
			c0.867-1.097,3.406-2.838,6.49-4.716c0.739-0.844,0.946-1.033,0.454-0.506c-0.124,0.133-0.178,0.234-0.186,0.302
			c0.002,0.013,0.006,0.024,0.016,0.032c0.11-0.066,0.229-0.135,0.341-0.202c0.48-0.356,0.972-0.798,1.47-0.874
			c0.048-0.027,0.094-0.057,0.143-0.084c0.014-0.008,0.026-0.016,0.04-0.023c0.007-0.006,0.016-0.011,0.023-0.017
			c-0.03-0.005-0.066-0.071-0.064-0.072c0.007-0.006,0.014-0.071,0.021-0.071c-0.01,0-0.022,0-0.021,0
			c0.073,0,0.146-0.047,0.22-0.098c-0.004,0.008-0.009,0.041-0.014,0.047c0.005-0.003,0.009,0.008,0.014,0.004
			c-0.026,0.035-0.052,0.07-0.078,0.105c0.026-0.023,0.052-0.049,0.078-0.064c0.674-0.941,1.372-1.912,2.086-2.688
			c5.288-5.751,11.213-7.306,11.213-7.306c0.001,0,0.002,0,0.003,0c0.002,0,0.055,0.094,0.057,0.096
			c0.002-0.002,0.053,0.146,0.055,0.149c0.001-0.011,0-0.021,0-0.03v0.031l0-0.001c-0.002,0.034-0.003,0.07,0.053,0.104
			c0.001-0.021-0.079-0.039-0.078-0.038c0.14,0.098,0.237,0.199,0.374,0.301c0.763,0.518,1.399,1.12,2.005,1.801
			c0.649,0.688,1.26,1.467,1.857,2.348c-0.571-2.123-1.495-4.791-2.656-7.646c0-0.001,0.024-0.006,0.023-0.007
			s0.012-0.005,0.011-0.006c-0.1-0.204-0.13-0.21-0.046-0.002c0-0.001-0.002-0.003-0.002-0.003
			c-0.007-0.015-0.015-0.029-0.021-0.044c0.002,0.007,0.004,0.012,0.006,0.018c-2.565-5.229,41.347-1.658,39.662,3.367
			c0.279-0.23,0.562-0.245,0.853-0.443c0,0,10.18,2.01,15.751,14.008c0-0.004,0-0.127,0.001-0.127
			c5.665,2.449,17.909,8.129,38.405,51.207c44.781-26.522,74.813-75.324,74.813-131.145
			C316.011,79.814,247.816,11.562,163.698,11.562z"/>
		<path fill="#FF2B00" d="M122.638,246.231c-1.123,0.789-1.842,1.306-1.937,1.401c-3.094,3.094-10.45,11.612-17.576,25.401
			c0,0,0,0.001,0,0.001c7.126-13.789,14.482-22.309,17.577-25.402c0.095-0.096,0.811-0.611,1.932-1.398c0,0,0-0.001,0.001-0.001
			C122.636,246.233,122.637,246.231,122.638,246.231z"/>
		<path fill="#ECD2A9" d="M113.709,307.741c-2.472-9.727-5.571-19.803-8.673-29.085c-3.226,6.528-6.355,13.773-9.092,21.658
			C101.666,303.161,107.606,305.624,113.709,307.741z"/>
		<path fill="#ECD2A9" d="M92.849,298.728c0,0-0.001-0.001-0.001-0.001s0,0.001,0,0.001c1.025,0.54,2.057,1.066,3.095,1.585
			c2.736-7.886,5.867-15.132,9.093-21.66c-0.638-1.909-1.276-3.786-1.909-5.618C99.43,280.188,95.795,288.758,92.849,298.728z"/>
		<path fill="#ECD2A9" d="M103.125,273.034c-6.224-18.019-11.929-31.801-11.929-31.801s-15.715-7.396-10.74,16.196
			c1.583,7.505,2.437,21.36,3.806,36.387c2.808,1.72,5.661,3.372,8.585,4.911C95.793,288.756,99.429,280.187,103.125,273.034z"/>
		<path fill="#ECD2A9" d="M92.849,298.728c2.946-9.97,6.581-18.54,10.277-25.693c0,0,0-0.001,0-0.001
			c-3.697,7.153-7.332,15.723-10.278,25.693C92.848,298.727,92.849,298.728,92.849,298.728z"/>
	</g>
	<path fill="#AC5424" d="M227.169,190.07c24.366-15.977,68.327-54.826,37.979-113.633c0,0-49.931-77.475-123.016-30.89
		c0,0,94.681-0.749,111.878,73.453c0.501,2.162,0.936,4.388,1.303,6.679c0.458,2.88,0.809,5.862,1.039,8.954
		c0.103,1.384,0.184,2.79,0.236,4.217c0,0-0.513-1.633-1.686-4.277c-1.199-2.708-3.09-6.475-5.838-10.653
		c-1.239-1.885-2.653-3.851-4.254-5.84c0.005-0.066,0.008-0.132,0.012-0.199c-0.048,0.013-0.097,0.023-0.145,0.035
		c-5.243-6.477-12.491-13.177-22.252-18.03c-5.222-2.596-11.157-4.665-17.894-5.886c0,0,11.393,9.634,16.931,22.139
		c0.171,0.389,0.341,0.778,0.502,1.172c0.351,0.861,0.668,1.735,0.953,2.62c3.927,2.895,7.989,5.585,12.071,7.854
		c2.643,1.469,5.293,2.759,7.917,3.812c-1.481,6.637-3.249,11.199-3.249,11.199c3.604,3.367,3.734,7.615,3.734,7.615
		C243.069,170.551,226.826,167,226.826,167c-6.684,13.536-16.053,25.115-23.906,33.439c-0.916,0.969-1.807,1.894-2.674,2.772
		c0.021-0.021,0.039-0.04,0.062-0.06c0,0-6.807,8.172-13.619,17.77c16.486,10.787,25.82,1.143,25.82,1.143
		c-7.541-4.514-8.386-10.249-6.559-15.613l3.841,4.043c10.812,9.979,23.252,0.772,23.252,0.772
		c-10.634,2.256-15.97-7.396-18.312-13.898c0.055-0.028,0.113-0.059,0.17-0.087c4.764,6.044,10.316,7.803,10.316,7.803
		c15.328,8.765,17.967-13.074,17.967-13.074C234.508,199.801,229.646,195.008,227.169,190.07z"/>
	
		<linearGradient id="SVGID_1_" gradientUnits="userSpaceOnUse" x1="232.1465" y1="-23.9209" x2="232.1465" y2="68.626" gradientTransform="matrix(1 0 0 -1 -66 251.667)">
		<stop  offset="0" style="stop-color:#EDD3AA"/>
		<stop  offset="1" style="stop-color:#E2C099"/>
	</linearGradient>
	<path fill="url(#SVGID_1_)" d="M199.322,204.352c-7.012,1.558-56.45,9.265-60.171,4.755c-2.697-3.826-6.192-9.447-6.193-9.447
		c1.122,5.338,11.041,21.035,13.644,27.438c0,0.001,0.001,0.003,0.001,0.004s0.001,0.002,0.002,0.003
		c2.341,4.772,4.094,8.479,4.351,9.296c0.301,0.965,0.521,1.825,0.642,2.559c0.004,0.029,0.012,0.054,0.016,0.082
		c3.766,7.89,6.251,19.959,7.881,31.959h13.312c1.469-13,3.895-24.84,7.808-32.83c0,0,2.166-3.662,2.169-3.67
		C182.928,234.075,199.814,204.625,199.322,204.352z"/>
	<path fill="none" d="M159.268,280.394c0.002,0.001-0.024,0.002-0.022,0.003l-0.052,0.017c0.002,0.002,0.051,0.002,0.053,0.002
		c0.068,0.025,0.185,0.047,0.253,0.07c0.33,0.145,0.648,0.311,0.984,0.338c0.033,0.012,0.037,0.023,0.069,0.033
		c0.175,1.854,0.288,3.71,0.426,5.564l0.111,0.371c0.801,10.361,1.265,20.623,1.265,29.379c0-8.756-0.464-19.024-1.265-29.387
		l4.145,14.471l-4.121-14.463c-0.153-1.979-0.32-3.963-0.507-5.938c1.078,0.33,2.193,0.649,3.333,0.817
		c-1.139-0.174-2.254-0.672-3.333-0.672c-0.001,0-0.001,0-0.002,0c-0.031,0-0.063-0.092-0.094-0.096
		c-0.335-0.027-0.668-0.232-0.997-0.378c-0.071-0.03-0.142-0.084-0.212-0.108c-0.001-0.002-0.003-0.014-0.005-0.015l-0.004-0.024
		l-0.008-0.041c-2.226-0.83-4.289-2.12-6.133-3.428c1.847,1.31,3.898,2.633,6.127,3.465L159.268,280.394z"/>
	<path fill="none" d="M134.123,277.731c-0.959,2.615-1.95,5.258-2.96,7.906c-0.007,0.021-0.015,0.038-0.022,0.058
		c0.055-0.05,0.114-0.096,0.169-0.146C132.306,282.931,133.174,280.318,134.123,277.731z"/>
	<path fill="none" d="M171.85,280.978c-0.009,0.128-0.018,0.266-0.026,0.418c-0.003,0.033-0.005,0.061-0.007,0.098
		c0.002-0.037,0.02-0.063,0.021-0.098c0.01-0.152,0.033-0.29,0.042-0.418c0.001-0.012,0.032-0.021,0.033-0.032
		c0.019-0.257,0.063-0.481,0.101-0.715l-0.048,0.095l-0.093,0.282c-0.006,0.108-0.014,0.218-0.02,0.338
		C171.852,280.957,171.852,280.966,171.85,280.978z"/>
	<path fill="none" d="M149.487,243.759c0.123-0.948,0.225-1.854,0.295-2.727c-0.076,0.818-0.18,1.67-0.296,2.564
		c-0.711,0.854-1.135,1.746-1.72,2.697l0.234-0.021c0,0.02,0,0.038,0,0.039c-3,3.555-4,7.729-4,12.204c0,0.003,0,0.006,0,0.01
		c0-4.476,1.313-8.657,3.502-12.212l1.173,7.18c0.018,4.049,0.568,8.842,2.315,14.684l1.262,8.051l-0.012,0.041l0.031-0.041
		c0.002,0.002,0.005,0.004,0.007,0.006l0.007,0.041c0.077,0.064,0.157,0.127,0.234,0.189c-0.081-0.084-0.161-0.168-0.241-0.235
		l-1.274-8.043c-0.001-0.002-0.002-0.006-0.003-0.009c-1.747-5.842-2.299-10.635-2.316-14.684l-1.132-7.18
		c0.585-0.949,1.236-1.854,1.947-2.708c-0.363,2.797-0.831,6.001-0.815,9.888c-0.016-3.887,0.452-6.938,0.815-9.736
		c0.492-0.59,1.012-1.545,1.559-1.545C150.513,242.212,149.979,243.167,149.487,243.759z"/>
	<polygon fill="none" points="149.262,235.056 149.262,235.057 149.264,235.057 	"/>
	<path fill="none" d="M132.681,284.11c0.043-0.024,0.09-0.084,0.133-0.108c0.004-0.004,0.009-0.006,0.014-0.008
		c0.73-2.137,1.433-4.265,2.095-6.367c-0.018,0.002-0.105,0.006-0.123,0.008c-0.246,0.027-0.8,0.06-0.8,0.095
		c0,0.002,0,0.002,0,0.003c0-0.036,0.558-0.068,0.809-0.098C134.117,279.835,133.447,282.194,132.681,284.11z"/>
	<polygon fill="none" points="158.53,315.985 158.559,316.171 158.562,316.167 	"/>
	<path fill="none" d="M142.974,278.873L142.974,278.873c-0.375-0.16-0.789-0.334-1.229-0.506c0.389,0.186,0.752,0.411,1.091,0.67
		C142.887,278.984,142.938,278.933,142.974,278.873z"/>
	<path fill="none" d="M181.197,185.828l13.937-31.303c-1.381-0.917-2.738-2.034-4.094-3.286c-2.208-2.046-1.101-3.946,0.307-5.223
		c0.062-0.609,0.598-1.416,1.016-1.965c-0.419,0.549-0.956,1.357-1.017,1.965c-1.407,1.279-2.515,3.177-0.307,5.224
		c1.356,1.251,2.711,2.37,4.092,3.286l-13.938,31.307c-0.416,1.354-0.786,2.643-1.121,3.885c0.002-0.002,0.005-0.001,0.007-0.001
		C180.414,188.475,180.78,187.184,181.197,185.828z"/>
	<path fill="none" d="M132.685,284.542c-0.002,0.008-0.005,0.018-0.008,0.024c-0.02,0.013-0.039,0.024-0.057,0.036
		c-1.002,2.906-2.058,5.825-3.147,8.729c0,0.002-0.001,0.004-0.002,0.008c0,0-0.001,0.002-0.001,0.004
		c0.009,0.004,0.018,0.011,0.023-0.004c0.001-0.004,0.024-0.006,0.025-0.008c0.017,0.008,0.073-0.125,0.092-0.119
		c-0.014-0.029-0.033-0.213-0.036-0.213H130v0.344c0,0,0,0.008,0,0.011c0,0.005,0,0.01,0,0.021c1-2.928,1.859-5.832,2.865-8.766
		c0.001-0.005-0.091,0.002-0.089,0.008C132.777,284.591,132.692,284.521,132.685,284.542z"/>
	<path fill="none" d="M135,277.603c0,0.007,0,0.014,0,0.021c0,0.002,0,0.002,0,0.004c1-0.084,1.438-0.137,2.182-0.14
		c0.968-0.003,1.905,0.085,2.807,0.285c-0.905-0.25-1.875-0.428-2.847-0.426c-0.734,0.001-1.487,0.172-2.208,0.253
		c0.546-1.736,1.128-3.454,1.616-5.15c-0.481,1.695-1.55,3.414-1.55,5.15C135,277.601,135,277.602,135,277.603z"/>
	<path fill="none" d="M132.851,284.332c-0.031-0.023-0.066-0.053-0.066-0.054C132.784,284.279,132.819,284.308,132.851,284.332
		L132.851,284.332z"/>
	<path fill="none" d="M145,235.72c0,0.005,0,0.01,0,0.015c0,6.231-2.608,16.914-6.719,29.231c-0.055,0.234-0.03,0.472-0.087,0.707
		c4.103-12.207,6.96-22.899,7.23-29.346l-0.268-0.611C145.153,235.716,145,235.718,145,235.72z"/>
	<path fill="none" d="M136.538,272.244c0.537-1.88,1.036-3.73,1.489-5.543c-0.044,0.131-0.09,0.264-0.135,0.393
		C137.469,268.78,137.029,270.5,136.538,272.244z"/>
	<path fill="none" d="M145,232.57v0.016v0.002l0.328,1.228c0.058,0.563,0.093,1.185,0.085,1.856c0,0,0.038,0.002,0.037,0.002
		c-0.003,0.209,0.003,0.365-0.005,0.584l1.967,9.742c0,0,0.013,0,0.019,0L145,235.647c0,0.006,0,0.013,0,0.019v-0.002
		c0-0.008,0.327-0.039,0.326-0.025l0.166,0.01c0.007-0.663,0.065-1.275,0.007-1.833c0-0.004,0.041-0.007,0.04-0.011l-0.173-1.229
		c-0.001-0.002-0.165-0.007-0.166-0.01c0,0.001-0.2,0.01-0.2,0.021v-0.002c0-0.012,0.378-0.586,0.378-0.586h0.002
		c0,0-0.014,0.291-0.037,0.301l-0.17,0.123l-0.174,0.123L145,232.57L145,232.57z"/>
	<path fill="none" d="M145.178,232.671c0.002-0.002,0.005-0.004,0.007-0.004c0.032-0.021,0.059-0.039,0.081-0.053
		c0.002-0.002,0-0.002,0.002-0.003c0.038-0.024,0.058-0.038,0.063-0.043c0.001-0.001,0.003-0.004,0.003-0.004
		s-0.034,0.019-0.078,0.047c-0.002-0.016-0.019-0.032-0.023-0.047c0,0-0.363,0.231-1.13,0.631l-0.012,0.035
		C144.604,232.966,144.968,232.779,145.178,232.671z"/>
	<path fill="none" d="M153.152,276.91c-0.038,0-0.075-0.008-0.112-0.021c0.008,0.006,0.016,0.014,0.024,0.021H153.152z"/>
	<path fill="none" d="M132,240.11v0.003c0-0.068-0.061-0.139,0.04-0.209c0.615-1.058,1.116-1.553,1.763-2.257
		c5.288-5.751,11.148-7.218,11.148-7.218s-5.958,1.341-11.247,7.092c-0.714,0.775-1.428,1.534-2.103,2.477
		c-0.026,0.018-0.06,0.043-0.085,0.067c0.026-0.035,0.048-0.063,0.074-0.099c-0.005,0.002-0.012,0.007-0.017,0.01
		c-0.021,0.027-0.043-0.001-0.064,0.025c-0.014,0.02-0.029-0.002-0.042-0.002c0,0-0.009,0-0.021,0c-0.019,0-0.042,0.055-0.06,0.055
		c-0.007,0.004-0.014,0.037-0.021,0.044c-0.002,0.001,0.034,0.024,0.064,0.03c0.013-0.01,0.29-0.012,0.304-0.021
		C131.735,240.107,132,240.112,132,240.11z"/>
	<polygon fill="none" points="164.975,181.324 165.23,181.261 164.975,181.242 	"/>
	<path fill="none" d="M174.609,184.014c0,0,0.009,0.006,0.011,0.007C174.618,184.02,174.609,184.013,174.609,184.014
		c-0.353-0.283-0.705-0.535-1.06-0.777l0.001,0.001C173.904,183.479,174.257,183.731,174.609,184.014z"/>
	<path fill="none" d="M155.738,182.945c-0.04,0.036-0.068-0.062-0.068-0.062c-0.138,0.318-0.183,0.574-0.16,0.785
		c-0.01-0.197,0.034-0.433,0.16-0.723C155.67,182.945,155.698,182.981,155.738,182.945z"/>
	<path fill="none" d="M159.082,185.378c0.409,0.053,0.812,0.074,1.206,0.074C159.895,185.453,159.491,185.431,159.082,185.378z"/>
	<path fill="none" d="M144.68,230.214v0.031c0,0,0.107,0.062,0.105,0.063c-0.002-0.001,0.105,0.12,0.104,0.12
		c0.001,0,0.002-0.047,0.003-0.082C144.82,230.305,144.753,230.257,144.68,230.214z"/>
	<path fill="none" d="M174.279,185.972c-0.006-0.006-0.016-0.012-0.021-0.016l-0.354,1.057c-4.373,0.727-9.293,0.984-11.992,1.074
		c0.002,0.002,0.003,0.002,0.005,0.004c2.674-0.088,7.61-0.344,12.039-1.078L174.279,185.972z"/>
	<path fill="none" d="M149.778,236.974c-0.005-0.479-0.029-1.018-0.323-1.588C149.596,235.957,149.707,236.498,149.778,236.974z"/>
	<path fill="none" d="M167.736,184.039c-0.711-0.01-1.193,0.049-1.527,0.108C166.545,184.087,167.029,184.031,167.736,184.039z"/>
	<path fill="none" d="M149.492,185.722c-0.159-0.057-0.244-0.09-0.244-0.09c0.023,0.017,0.047,0.029,0.07,0.045
		c3.777,2.514,8.682,3.232,13.52,3.084c-0.018-0.01-0.038-0.021-0.056-0.031C158.036,188.869,153.23,188.136,149.492,185.722z"/>
	<path fill="none" d="M163.729,180c-4.378,0-7.524,2.502-7.991,2.924c0.472-0.422,3.659-2.924,8.036-2.924
		C163.754,180,163.729,180,163.729,180z"/>
	<path fill="none" d="M163.855,180.022c0.146,0,0.508,0.002,1.041,0.05C164.365,180.024,164.002,180.022,163.855,180.022z"/>
	<path fill="none" d="M129.754,241.142c0.481-0.289,0.97-0.58,1.47-0.874C130.726,240.343,130.234,240.785,129.754,241.142z"/>
	<path fill="none" d="M154.177,184.401c0.711,0.003,1.468,0.084,2.248,0.282C155.643,184.484,154.887,184.404,154.177,184.401z"/>
	<path fill="none" d="M174.502,185.189L174.54,185c-0.002,0-0.004,0-0.006,0l-0.002,0.062l-0.003,0.035
		c-0.4-0.077-0.817-0.146-1.273-0.256c-0.396-0.096-0.765-0.168-1.119-0.243c0.012,0.007,0.021,0.017,0.033,0.022
		c-0.007-0.002-0.016-0.002-0.021-0.004c0.026,0.014,0.05,0.027,0.076,0.041c0.328,0.075,0.668,0.143,1.031,0.229
		C173.701,184.996,174.109,185.18,174.502,185.189z"/>
	<path fill="none" d="M166.352,182.89c0.268,0.001,0.42,0.007,0.42,0.007c2.127,0.313,3.986,1.026,5.289,1.696
		c-1.303-0.67-3.136-1.383-5.263-1.696C166.797,182.896,166.635,182.89,166.352,182.89z"/>
	<path fill="none" d="M145.308,230.61c0.705,0.521,1.379,1.117,2.025,1.802C146.728,231.73,146.071,231.126,145.308,230.61z"/>
	<path fill="none" d="M137.863,209.777c2.779,5.53,6.1,12.062,8.665,17.291c-0.002-0.006-0.004-0.011-0.006-0.018
		C143.957,221.826,140.639,215.302,137.863,209.777L137.863,209.777z"/>
	<path fill="none" d="M129.582,241.011c-0.144,0.154-0.196,0.248-0.186,0.301C129.404,241.246,129.458,241.143,129.582,241.011z"/>
	<path fill="none" d="M158.224,141.201c0.105-0.53,0.121-1.048,0.071-1.543c-0.002-0.001-0.004-0.002-0.006-0.003
		C158.341,140.152,158.328,140.67,158.224,141.201z"/>
	<path fill="none" d="M140.721,143.257c1.397,0.906,3.762,1.903,6.402,2.446c-0.157-0.033-0.309-0.074-0.465-0.11
		C144.229,145.029,142.036,144.103,140.721,143.257z"/>
	<path fill="none" d="M151.698,240.123c0.006,0.883-0.212,1.605-0.742,2.09C151.495,241.718,151.713,241.013,151.698,240.123z"/>
	<path fill="none" d="M144.952,230.908L145,230.91v-0.002c0,0-2.479,1.647-5.688,3.936c2.859-1.959,5.059-3.463,5.609-3.838
		L144.952,230.908z"/>
	<path fill="none" d="M157.772,274.945c0.675,0,1.354,0.014,1.964,0.038C159.09,274.958,158.483,274.945,157.772,274.945z"/>
	<path fill="none" d="M138.989,129.585l0.187,3.087l3.259-1.38l-3.039,1.417l0.035-3.043l0.001-0.004
		c1.055-0.216,2.67-0.446,4.38-0.797c1.021-0.34,1.711-0.526,2.306-0.584c0.008-0.006-0.036-0.027-0.029-0.029
		c0,0,0.006-0.032,0.048-0.028c0.888-0.072,1.293,0.006,1.293,0.006s-0.424-0.09-1.312-0.018c-0.042-0.003-0.077,0.016-0.077,0.016
		c-0.008,0.002-0.019,0-0.027,0.005c-0.595,0.059-1.169,0.238-2.192,0.577c-1.71,0.352-3.316,0.526-4.372,0.745l-0.001,0.003
		c0,0-0.221-0.041-0.222-0.04l-0.568-7.352c-0.009,0-0.067-0.036-0.077-0.036L138.989,129.585z"/>
	<path fill="none" d="M185.363,273.626c0.109-0.016,0.216,0.006,0.324,0.008c-0.104-0.002-0.207-0.031-0.312-0.022
		C185.372,273.617,185.368,273.623,185.363,273.626z"/>
	<polygon fill="none" points="174.354,315.533 179.355,278.667 179.371,278.626 179.355,278.589 	"/>
	<path fill="none" d="M172.092,275c-4.162,0-8.351,0-12.096,0C163.741,275,167.93,275,172.092,275z"/>
	<path fill="none" d="M172,274.787c0,0.002,0,0.002,0,0.004c0,0,0.018,0.004,0.025,0.004c-0.004,0.039-0.025,0.111-0.025,0.142
		c0-0.002,0-0.002,0-0.004c0-0.019,0.208,0.022,0.211,0.034c-0.002,0,0.198,0.033,0.196,0.033c-0.001,0-0.407,0-0.407,0v-0.059
		c0,0.003,0.404,0.059,0.404,0.059s0,0,0.003,0s0.006,0,0.006,0c0.001,0,0.001,0,0.002,0s0,0,0.001,0c0.252,0,0.504,0,0.755,0
		l0.002-0.143c0.009,0,0.017-0.122,0.022-0.123c-0.006,0.001-0.014,0.102-0.022,0.102c-0.247,0.015-0.495,0.164-0.743,0.164
		c-0.009,0-0.018,0-0.027,0c0.005,0,0.01-0.197,0.015-0.244c0.122-1.221,0.251-2.424,0.39-3.686
		c-0.139,1.262-0.47,2.385-0.592,3.604C172.211,274.722,172,274.742,172,274.787z"/>
	<path fill="none" d="M159.987,274.979c0.079,0.687,0.154,1.312,0.229,1.931c-0.071-0.599-0.145-1.298-0.22-1.965
		c-0.002,0-0.004,0-0.006,0c0,0-0.001,0-0.002,0c-0.005,0-0.009,0-0.014,0C159.978,274.945,159.982,274.938,159.987,274.979z"/>
	<path fill="none" d="M172.193,274.938c-0.012,0-0.02,0.001-0.02,0.002c0,0,0,0.001,0,0.002c0.016-0.001,0.031-0.002,0.047-0.002
		C172.212,274.94,172.202,274.939,172.193,274.938z"/>
	<path fill="none" d="M134.248,205.842c1.754-1.839,4.657-6.154,6.439-15.709c0.594-3.186,1.126-6.94,1.396-11.392l-2.079-35.911
		c-0.032-0.025-0.078,0.024-0.112,0.018c-0.012-0.002-0.021-0.003-0.021-0.003l-0.051-0.157c-0.02-0.017-0.037-0.081-0.056-0.097
		l0.01,0.07l2.187,36.071c-0.27,4.45-0.962,8.171-1.556,11.356c-1.782,9.556-4.282,13.94-6.628,15.672v-0.003
		c-0.007,0.043,0.153,0.106,0.12,0.142c-0.036,0.037,0.04,0.089,0.002,0.124c1.262,4.404,3.423,11.771,4.835,18.291
		c0,0.002,0.028,0.01,0.028,0.014c0.009,0.032,0.028,0.069,0.037,0.104c0.062,0.226,0.131,0.456,0.193,0.675
		c0.001,0.001-0.009,0.003-0.01,0.004c0,0.001-0.026,0.002-0.025,0.003c0.633,3.016,1.062,5.805,1.246,7.995
		c0.035,0.08,0.072,0.155,0.107,0.235c0,0.018-0.004,0.027-0.008,0.041h0.001c0,0,0,0,0.001,0.001
		c0.006,0.001,0.012,0.044,0.022,0.053c0.009,0.009,0.013,0.04,0.016,0.048c0,0.001,0.001,0.002,0,0.003
		c0.557,1.308,1.03,2.816,1.453,4.365c0,0.026-0.003,0.051-0.004,0.077c2.293,8.434,2.69,20.173,2.078,32.691
		c0.614-12.529,0.243-24.427-2.055-32.861c0-0.028-0.001-0.062,0-0.092c-0.427-1.556-0.916-3-1.478-4.312
		c-0.172-2.224-0.666-5.117-1.323-8.244c0-0.001,0-0.002-0.001-0.003c0-0.002,0-0.003,0-0.004c-1.42-6.764-3.59-14.605-4.897-19.168
		c0,0,0,0,0.001,0c0.034-0.035,0.065-0.062,0.099-0.099c3.622,9.191,16.474,32.021,48.07,11.841c0.436,0.357,0.864,0.71,1.292,1.04
		c0.002-0.004,0.006-0.008,0.008-0.01c-0.43-0.332-0.861-0.68-1.299-1.038C150.692,237.856,137.869,215.036,134.248,205.842z"/>
	<path fill="none" d="M159.9,274.816c0.003,0.032-0.052,0.086-0.048,0.129c0.001,0.01-0.116,0.021-0.116,0.03
		c0-0.009,0.235-0.021,0.234-0.03c-0.004-0.043-0.008-0.097-0.011-0.129c-0.07-0.605-0.148-1.212-0.222-1.816
		c-0.079-0.672-0.159-1.338-0.242-1.981c0.085,0.661,0.132,1.319,0.212,1.981C159.782,273.604,159.83,274.21,159.9,274.816z"/>
	<path fill="none" d="M179.377,278.526L179.377,278.526l0.029-1.616L179,278.526v0.007c0,0,0.189,0.16,0.191,0.158l0.093,0.182
		c0.823-0.653,1.659-1.31,2.413-1.963c-0.754,0.652-1.518,1.125-2.34,1.614C179.355,278.525,179.378,278.525,179.377,278.526z"/>
	<polygon fill="none" points="185.355,273.634 185.354,273.636 185.357,273.636 	"/>
	<polygon fill="#FFFFFF" points="131.475,240.11 131.471,240.115 131.474,240.113 	"/>
	<path fill="#EDD3AA" d="M129.396,241.312c-0.011-0.053,0.042-0.146,0.186-0.301c0.493-0.528,0.286-0.338-0.454,0.505
		c0.093-0.058,0.189-0.114,0.284-0.171C129.402,241.337,129.399,241.324,129.396,241.312z"/>
	<path fill="#AC5424" d="M133.562,206.342c-1.99-6.757-3.574-12.07-3.625-12.24c-0.022,0.021-0.034,0.03-0.003-0.01
		c0,0-11.602-25.932-15.749-49.603c0,0-8.419-5.148-8.341-13.875c0,0-0.586-9.216,5.546-12.271c0,0,5.862-3.327,7.905,2.17
		c3.104-1.277,1.893-15.688,7.575-17.708c2.583-1.946,4.7-3.243,6.485-4.115c-8.363-12.461-12.927-31.312,8.775-53.141
		c0,0-49.359-2.75-62.523,49.66c0,0-6.589,36.616,20.484,68.707c-4.049,3.796-10.334,6.692-15.76-3.72
		c0,0-5.188,21.377,12.241,18.546c0,0,5.402,0.276,11.689-3.28c0.281,0.646,0.563,1.326,0.838,2.037
		c-4.322,5.292-13.02,13.312-22.562,7.229c0,0,8.432,12.984,22.051,7.435l2.854-1.389c-0.589,5.072-3.61,9.445-11.528,10.896
		c0,0,0.167,0.385,0.548,0.992c0.115,0.182,0.248,0.384,0.402,0.603c1.489,2.112,4.896,5.709,11.357,6.91
		c4.902,0.91,11.562,0.442,20.479-3.1c0,0,0.31-0.153,0.802-0.566l0,0c-0.009-0.028-0.018-0.062-0.026-0.091
		C133.502,206.391,133.533,206.368,133.562,206.342z"/>
	<path fill="#EDD3AA" d="M140.236,142.907c-0.063-0.049-0.112-0.089-0.171-0.135c0.036,0.038,0.088,0.08,0.146,0.127
		c0.15,0.116,0.323,0.236,0.511,0.357c1.314,0.846,3.506,1.772,5.938,2.335C143.906,144.943,141.423,143.826,140.236,142.907z"/>
	<path fill="#EDD3AA" d="M139.905,142.661c0,0,0.009,0.001,0.021,0.004c-0.027-0.022-0.061-0.048-0.088-0.069L139.905,142.661z"/>
	<path fill="#EDD3AA" d="M192.6,151.802c-2.068-1.917-1.23-3.703,0.037-4.971c-1.028,0.069-1.343-0.294-1.29-0.815
		c-1.407,1.278-2.515,3.177-0.307,5.223c1.355,1.251,2.713,2.369,4.094,3.286l0.183-0.412
		C194.405,153.414,193.501,152.636,192.6,151.802z"/>
	<path fill="#EDD3AA" d="M146.242,226.365c-2.551-6.164-5.935-13.025-7.962-17.135c-0.121,0.172-0.237,0.33-0.343,0.462
		c-0.015-0.03-0.029-0.06-0.044-0.089c-0.024,0.029-0.049,0.061-0.072,0.089c0.014,0.028,0.028,0.058,0.042,0.085
		c2.776,5.523,6.094,12.049,8.659,17.273c0.006,0.015,0.014,0.029,0.021,0.044c0,0,0.001,0.002,0.001,0.003
		c-0.084-0.208-0.172-0.418-0.259-0.628c-0.013-0.032-0.026-0.063-0.04-0.097C146.244,226.371,146.243,226.367,146.242,226.365z"/>
	<path fill="#EDD3AA" d="M173.552,183.237l1.039,1.888l-0.059-0.062l0.002-0.062c0.002,0,0.004,0,0.006,0
		c0.417,0,0.808,0.211,1.169,0.262c-0.115-0.609-1.033-1.234-1.089-1.273c-0.002-0.002-0.011,0.01-0.011,0.01
		C174.257,183.714,173.904,183.479,173.552,183.237z"/>
	<path fill="#EDD3AA" d="M135.316,134.378c-0.058-0.003-0.116-0.006-0.173-0.011c-1.333,0.594-4.33,2.323-0.686,4.658
		c4.361,2.783,2.981,1.781,5.323,3.611l-0.006-0.092c-2.128-1.671-0.9-0.771-5.163-3.492
		C130.928,136.696,134,134.959,135.316,134.378z"/>
	<path fill="#EDD3AA" d="M132.144,198.205c-0.001-0.002-0.005-0.01-0.005-0.01C132.115,198.242,132.126,198.23,132.144,198.205z"/>
	<path fill="#EDD3AA" d="M132.139,198.195c0,0,0.004,0.008,0.005,0.01C132.181,198.152,132.252,198.033,132.139,198.195z"/>
	<path fill="#EDD3AA" d="M195.134,154.524c1.403,0.931,2.831,1.652,4.31,2.067c-1.408-0.6-2.777-1.446-4.127-2.478L195.134,154.524z
		"/>
	<path fill="#EDD3AA" d="M180.846,185.011c-0.045,0.018-0.104,0.039-0.154,0.06c-0.002,0.017-0.004,0.032-0.004,0.048
		C180.738,185.082,180.794,185.044,180.846,185.011z"/>
	<path fill="#EDD3AA" d="M180.826,185.064c0.104-0.055,0.199-0.111,0.298-0.168c-0.067,0.027-0.144,0.061-0.231,0.096
		C180.87,185.017,180.848,185.039,180.826,185.064z"/>
	<path fill="#EDD3AA" d="M239.656,142.794c0,0,1.768-4.562,3.249-11.199c-2.624-1.052-5.273-2.342-7.916-3.811l0.001-0.002
		c-4.083-2.268-8.146-4.958-12.071-7.854c0.905,2.797,1.466,5.692,1.497,8.626c0,0-3.778-5.438-12.446-11.842
		c-6.444-4.761-15.587-10.054-27.912-14.047c0,0-5.621-0.852-13.059-3.093c3.134,7.801,8.983,18.852,17.855,22.181
		c0,0-33.281-4.984-40.534-23.426c0,0-6.074,3.429,0.904,16.247c0,0-5.956-3.826-11.781-10.551
		c-1.399-1.614-2.787-3.399-4.086-5.334c-1.785,0.871-3.903,2.169-6.485,4.115c-5.68,2.02-4.471,16.431-7.575,17.708
		c-2.041-5.497-7.905-2.17-7.905-2.17c-6.132,3.056-5.546,12.271-5.546,12.271c-0.078,8.727,8.342,13.875,8.342,13.875
		c4.146,23.671,15.748,49.602,15.748,49.602c0.005-0.005,0.003-0.005,0.007-0.01c-0.001,0.007-0.006,0.014-0.004,0.021
		c16.887,50.556,52.35,23.573,52.35,23.573c5.419-3.461,11.39-8.185,17.958-14.463c0.867-0.879,1.759-1.803,2.674-2.771l0,0
		c7.853-8.323,17.222-19.902,23.904-33.437c0,0,16.243,3.55,16.565-16.592C243.392,150.409,243.26,146.161,239.656,142.794z
		 M147.469,145.78c-0.116-0.022-0.229-0.052-0.344-0.077c-2.641-0.542-5.006-1.542-6.403-2.447c-0.188-0.121-0.36-0.241-0.51-0.357
		c-0.059-0.046-0.111-0.089-0.147-0.127c-0.015-0.012-0.029-0.024-0.043-0.033l-0.242-0.103c-2.34-1.831-0.961-0.83-5.322-3.611
		c-3.644-2.335-0.647-4.064,0.686-4.659c-1.682-0.139-3.565-0.733-5.146-2.337c0,0-1.466-2.912,3.822-2.052
		c0,0,1.501-0.045,5.614-0.312l0.024-0.135c1.055-0.211,2.653-0.382,4.331-0.728c1.022-0.339,1.725-0.495,2.32-0.554
		c0.008-0.006-0.029-0.011-0.021-0.014c0,0,0.032-0.157,0.074-0.153c0.888-0.072,1.307-0.121,1.307-0.121l0.54,0.098
		c3.287,0.595,10.622,2.418,12.013,10.294c-0.002,0.002-0.366,2.153-1.725,1.307c0.049,0.496,0.034,1.012-0.071,1.543
		c-0.175,0.899-0.609,1.834-1.432,2.761C154.712,146.3,150.954,146.464,147.469,145.78z"/>
	<path fill="#994C1F" d="M256.352,134.631c-0.23-3.092-0.581-6.073-1.039-8.954c-0.367-2.291-0.802-4.517-1.303-6.679
		c-17.199-74.201-111.878-73.452-111.878-73.452c-21.7,21.83-17.138,40.68-8.775,53.141c1.3,1.936,2.688,3.721,4.086,5.334
		c5.825,6.726,11.781,10.551,11.781,10.551c-6.979-12.818-0.905-16.246-0.905-16.246c7.253,18.442,40.533,23.426,40.533,23.426
		c-8.872-3.329-14.721-14.38-17.854-22.181c7.438,2.241,13.059,3.092,13.059,3.092c12.325,3.993,21.467,9.286,27.911,14.048
		c8.668,6.403,12.447,11.842,12.447,11.842c-0.031-2.935-0.593-5.83-1.498-8.627c-0.285-0.883-0.603-1.758-0.953-2.62
		c-0.16-0.394-0.331-0.782-0.503-1.171c-5.537-12.504-16.93-22.138-16.93-22.138c6.737,1.221,12.673,3.29,17.894,5.886
		c9.761,4.853,17.008,11.551,22.252,18.03c0.048-0.013,0.098-0.023,0.146-0.035c-0.005,0.067-0.009,0.132-0.013,0.199
		c1.602,1.989,3.015,3.956,4.254,5.84c2.748,4.179,4.639,7.946,5.838,10.653c1.173,2.646,1.686,4.276,1.686,4.276
		C256.533,137.421,256.454,136.016,256.352,134.631z"/>
	<path fill="#243A85" d="M170.997,292.815c0.163-3.687,0.51-7.433,0.521-11.166l-5.422,22.622l-0.58-2.027l-0.281-0.988
		l-4.145-14.471c0.801,10.361,1.265,20.631,1.265,29.387l0,0c0.655,0.004,1.032,0.017,1.456,0.017c2.35,0,4.189-0.062,7.189-0.167
		c0-0.01,0-0.021,0-0.032c0-0.001,0-0.002,0-0.003c0-0.002,0-0.002,0-0.003c0,0.001-0.166,0.002-0.18,0.003
		c-0.018,0-0.137,0.002-0.153,0.003C170.641,309.093,170.634,301.103,170.997,292.815z"/>
	<path fill="#243A85" d="M171.816,281.492c0.002-0.035,0.004-0.062,0.007-0.097c0.009-0.153,0.018-0.29,0.026-0.418
		c0-0.013,0.002-0.021,0.002-0.032c0.006-0.121,0.014-0.229,0.02-0.338l-0.291,0.885c0.042,0,0.092,0,0.094,0
		C171.672,281.492,171.818,281.457,171.816,281.492z"/>
	<path fill="#243A85" d="M172.221,274.94c-0.015,0-0.029,0.001-0.046,0.002c0,0.001,0,0.002,0,0.003c0.036,0,0.071,0,0.106,0
		C172.282,274.943,172.25,274.942,172.221,274.94z"/>
	<path fill="#243A85" d="M172.188,277c0.065-1,0.024-1,0.094-2c-0.036,0-0.071,0-0.106,0c-0.026,0-0.055,0-0.083,0
		c-4.162,0-8.351,0.019-12.096,0.019c0.075,0.668,0.149,0.981,0.22,1.981H172.188z"/>
	<path fill="#243A85" d="M161.114,286.792l4.121,14.463l0.281,0.988l0.58,2.027l5.422-22.622c0-0.052,0.002-0.104,0.002-0.155
		c-1.324,0.006-2.685,0.381-4.076,0.381c-0.889,0-1.762-0.06-2.625-0.162c-0.295-0.033-0.588-0.078-0.879-0.123
		c-1.139-0.166-2.254-0.405-3.333-0.735C160.794,282.83,160.961,284.813,161.114,286.792z"/>
	<path fill="#243A85" d="M160.605,281c0,0,0.001,0,0.002,0c1.078,0,2.193,0.498,3.333,0.672c0.293,0.045,0.584,0.047,0.879,0.082
		c0.863,0.103,1.977,0.143,2.865,0.143c1.392,0,2.315-0.396,4.315-0.4c0-0.002,0-0.494,0-0.494l0,0c0,0-0.451,0-0.419,0l0.291-0.64
		l0.093-0.159l0.048-0.033c0.014-0.084-0.057-0.137-0.05-0.228c0.001-0.017,0.037-0.006,0.037-0.022c0-0.004,0-0.008,0-0.012
		l0.013-0.019l0.11-0.589c-0.002-0.116,0.017-0.186,0.015-0.299c-0.017-0.588-0.009-1.002,0.051-2.002h-11.973
		c0.138,1,0.269,3,0.392,4C160.606,281,160.606,281,160.605,281z"/>
	<path fill="#FFFFFF" d="M131.471,240.115c-0.014,0.01-0.028,0.02-0.041,0.028c-0.008,0.006-0.016,0.011-0.023,0.017
		c0.019-0.011,0.037-0.021,0.056-0.033C131.465,240.123,131.468,240.119,131.471,240.115z"/>
	<path fill="#E2C099" d="M163.299,174.657c3.512,1.397,3.013,1.068,6.969,0.802c3.974-0.252,2.522-5.611,2.522-5.611l1.042-12.109
		c0.463-7.401,1.197-11.955,1.197-11.955s-11.066,19.207-13.19,22.09C159.715,170.757,159.795,173.275,163.299,174.657z"/>
	<g>
		<path fill="#FFFFFF" d="M192.987,146.801c-0.132,0.02-0.235,0.021-0.351,0.03c-1.268,1.268-2.106,3.054-0.037,4.971
			c0.901,0.834,1.806,1.612,2.717,2.311l4.976-11.172C196.947,143.64,192.987,146.801,192.987,146.801z"/>
		<path fill="#FFFFFF" d="M214.999,147.618l-3.48-1.811c-0.471-0.373-0.939-0.705-1.407-1.002c-3.208-2.035-6.371-2.37-9.372-1.951
			c-0.147,0.021-0.298,0.054-0.446,0.086l-4.975,11.172c1.351,1.032,2.719,1.878,4.125,2.478c2.738,1.165,5.625,1.37,8.822,0.003
			c5.953-2.536,6.682-2.783,8.003-4.511C217.22,150.842,216.66,148.996,214.999,147.618z M205.978,150.358
			c-0.372,2.053-2.338,3.418-4.398,3.045c-2.052-0.371-3.414-2.339-3.042-4.393c0.373-2.053,2.338-3.421,4.39-3.049
			C204.987,146.335,206.35,148.305,205.978,150.358z M206.713,156.036c4.833-2.061,6.22-2.611,7.278-3.671
			C212.933,153.425,211.546,153.975,206.713,156.036z"/>
	</g>
	<path fill="#FFFFFF" d="M158.169,139.58c0,0-0.015-0.036-0.041-0.098c0.18,1.373-0.125,2.924-1.483,4.453
		c-2.055,2.304-5.737,2.494-9.176,1.845c3.483,0.684,7.243,0.52,9.324-1.818c0.823-0.927,1.258-1.862,1.432-2.761
		c0.103-0.531,0.117-1.05,0.064-1.546C158.249,139.63,158.21,139.61,158.169,139.58z"/>
	<path fill="#FFFFFF" d="M158.129,139.482c-0.371-0.851-3.414-7.107-12.653-7.096c0,0-3.771,0.225-5.825,1.406
		c0,0-0.812-0.859-1.067-0.783c0,0-5.823,1.808-5.792,3.343c0,0.025-0.969,2.149,7.047,6.242c0.03,0.016,0.059,0.046,0.088,0.069
		c0.031,0.024,0.063,0.049,0.095,0.076c0.014,0.01,0.028,0.022,0.043,0.033c0.057,0.046,0.107,0.086,0.17,0.135
		c1.188,0.919,3.67,2.036,6.424,2.686c0.155,0.037,0.307,0.077,0.465,0.11c0.115,0.025,0.228,0.055,0.344,0.077
		c3.439,0.649,7.122,0.46,9.176-1.845C158.003,142.408,158.308,140.856,158.129,139.482z M152.796,140.541
		c-0.373,2.057-2.349,3.417-4.392,3.047c-2.057-0.373-3.426-2.339-3.054-4.396c0.373-2.059,2.346-3.421,4.402-3.049
		C151.796,136.513,153.168,138.482,152.796,140.541z"/>
	<path fill="#7F5026" d="M142.586,131.321c2.633-0.271,4.793-0.15,6.556,0.175c-0.066-0.013-0.126-0.029-0.193-0.041
		c-1.763-0.32-3.909-0.432-6.514-0.161l-3.258,1.379l0.005,0.086L142.586,131.321z"/>
	<path fill="#7F5026" d="M146.036,128.239c-0.008,0.003-0.019,0.015-0.026,0.02c-0.596,0.059-1.173,0.266-2.196,0.605
		c-1.71,0.352-3.325,0.582-4.38,0.797l0,0.004l-0.035,3.043l3.148-1.397c2.605-0.27,4.694-0.169,6.458,0.15
		c0.067,0.012,0.101,0.023,0.167,0.036c4.994,0.92,6.739,3.483,6.739,3.483s2.109,2.025,2.386,4.673
		c0.002,0.001,0.001,0.001,0.004,0.003c1.358,0.847,1.721-1.306,1.721-1.306c-1.392-7.876-8.729-9.699-12.015-10.294l-0.541-0.098
		c0,0-0.442,0.051-1.33,0.123C146.093,128.08,146.036,128.239,146.036,128.239z"/>
	<path fill="#7F5026" d="M139.176,132.672l-0.187-3.087c-0.507,0.062-0.985,0.113-1.431,0.156c-2.479,0.236-3.962,0.195-3.962,0.195
		c-5.289-0.859-3.6,2.092-3.6,2.092c1.582,1.604,3.464,2.198,5.146,2.337c0.329-0.146,0.559-0.225,0.559-0.225L139.176,132.672z"/>
	<path fill="#7F5026" d="M139.181,132.758l-0.006-0.086l-3.475,1.469c0,0-0.229,0.079-0.559,0.225
		c0.058,0.005,0.115,0.007,0.173,0.011c0.312-0.138,0.527-0.212,0.527-0.212L139.181,132.758z"/>
	<path fill="#7F5026" d="M158.289,139.655c-0.277-2.648-2.393-4.675-2.393-4.675s-1.759-2.565-6.753-3.486
		c4.881,0.945,6.609,3.459,6.609,3.459s2.04,1.953,2.377,4.529c0.027,0.062,0.041,0.098,0.041,0.098
		C158.21,139.61,158.249,139.63,158.289,139.655z"/>
	<path fill="#7F5026" d="M155.751,134.954c0,0-1.728-2.516-6.609-3.46c-1.762-0.324-3.922-0.445-6.556-0.174l-3.406,1.437
		l0.07,1.166c0.255-0.077,0.398-0.131,0.398-0.131c2.054-1.182,5.825-1.406,5.825-1.406c9.239-0.011,12.283,6.246,12.652,7.096
		C157.791,136.907,155.751,134.954,155.751,134.954z"/>
	<path fill="#7F5026" d="M135.843,134.168c0,0-0.214,0.073-0.527,0.211c1.743,0.114,3.248-0.249,3.936-0.453l-0.07-1.167
		L135.843,134.168z"/>
	<path fill="#7F5026" d="M214.055,131.488l-5.978-2.136c-4.631-0.728-8.354,0.074-11.063,1.188v0
		c-3.377,1.386-5.179,3.257-5.179,3.257c-1.164,2.164,1.949,0.686,1.949,0.686c0.812-0.944,1.853-1.655,2.949-2.193l0.022-0.142
		l-0.023,0.143c3.106-1.525,6.652-1.646,6.652-1.646c2.897-0.832,9.308,2.282,9.308,2.282
		C215.547,132.716,214.055,131.488,214.055,131.488z"/>
	<path fill="#7F5026" d="M162.127,127.536l-4.163-4.792c-6.567-5.182-13.004-4.709-15.375-4.296
		c-0.612,0.107-0.965,0.259-0.965,0.259c-1.434,0.908-0.252,1.377,0.628,1.509c0.009,0.001,0.018,0.002,0.027,0.004
		c0.384,0.057,0.706,0.042,0.706,0.042c4.485-1.63,10.252,1.335,10.252,1.335c1.382,0.327,7.979,8.555,6.997,6.538
		C162.825,129.352,162.127,127.536,162.127,127.536z"/>
	<path fill="#7F5026" d="M193.759,144.384c1.896-1.281,5.782-2.803,5.782-2.803c0.49-0.099,0.967-0.149,1.438-0.182l0.622-1.396
		c-5.118,0.702-8.734,3.432-8.734,3.432s-0.005,0.007-0.017,0.019c-0.055,0.063-0.253,0.291-0.487,0.598
		c-0.417,0.549-0.953,1.356-1.015,1.965C192.46,145.006,193.759,144.384,193.759,144.384z"/>
	<path fill="#7F5026" d="M193.759,144.384c0,0-1.299,0.622-2.41,1.631c-0.053,0.521,0.261,0.885,1.289,0.815
		c1.16-1.16,2.681-1.889,2.681-1.889c1.459-0.986,4.098-2.115,5.232-2.581l0.428-0.961c-0.47,0.031-0.947,0.083-1.438,0.182
		C199.541,141.581,195.653,143.104,193.759,144.384z"/>
	<path fill="#7F5026" d="M218.211,145.922c0,0-3.858-4.401-11.199-5.798c-1.915-0.367-3.743-0.351-5.413-0.121l-0.622,1.396
		c0.94-0.064,1.84-0.018,2.678,0.134c0.951,0.174,1.827,0.467,2.625,0.814c3.897,1.101,6.35,3.956,6.35,3.956
		c0.939,0.328,1.731,0.788,2.368,1.314l0.313,0.164c0,0,1.783,1.181,4.555,0.625c0,0,0.631-0.201,1.146-0.499l0.615-0.887
		C221.441,146.635,220.543,146.236,218.211,145.922z"/>
	<path fill="#7F5026" d="M201.097,142.14c1.911-0.384,3.658-0.221,5.184,0.208c-0.797-0.347-1.673-0.64-2.626-0.814
		c-0.838-0.152-1.736-0.2-2.676-0.134l-0.428,0.961C200.886,142.222,201.097,142.14,201.097,142.14z"/>
	<path fill="#7F5026" d="M221.628,147.021l-0.617,0.887C221.438,147.661,221.783,147.345,221.628,147.021z"/>
	<path fill="#7F5026" d="M200.292,142.94l0.257-0.579c-1.134,0.466-3.771,1.594-5.231,2.582c0,0-1.52,0.729-2.681,1.889
		c0.114-0.008,0.219-0.01,0.351-0.03C192.988,146.802,196.947,143.64,200.292,142.94z"/>
	<path fill="#7F5026" d="M201.097,142.14c0,0-0.21,0.083-0.548,0.221l-0.257,0.579c0.149-0.031,0.3-0.064,0.446-0.085
		c2.999-0.419,6.163-0.084,9.372,1.951c-0.819-0.725-2.135-1.72-3.831-2.457C204.755,141.918,203.006,141.755,201.097,142.14z"/>
	<path fill="#7F5026" d="M211.519,145.807l3.48,1.812c-0.638-0.526-1.431-0.987-2.369-1.314c0,0-2.451-2.856-6.35-3.957
		c1.696,0.738,3.013,1.732,3.831,2.457C210.579,145.103,211.048,145.434,211.519,145.807z"/>
	<path fill="#693E17" d="M148.369,143.577c2.044,0.37,4.019-0.99,4.392-3.046c0.373-2.059-1-4.027-3.043-4.397
		c-2.057-0.373-4.028,0.99-4.401,3.048C144.943,141.238,146.312,143.205,148.369,143.577z M149.56,137.002
		c1.575,0.285,2.61,1.793,2.325,3.369c-0.285,1.575-1.782,2.615-3.357,2.33c-1.582-0.286-2.624-1.787-2.338-3.362
		C146.475,137.763,147.978,136.715,149.56,137.002z"/>
	<path fill="#7F5026" d="M148.529,142.705c1.575,0.285,3.072-0.755,3.357-2.33c0.286-1.577-0.75-3.084-2.325-3.369
		c-1.582-0.287-3.085,0.761-3.371,2.337C145.905,140.917,146.946,142.418,148.529,142.705z"/>
	<path fill="#693E17" d="M205.935,150.518c0.372-2.053-0.99-4.023-3.05-4.396c-2.053-0.372-4.019,0.996-4.391,3.049
		c-0.372,2.054,0.99,4.021,3.042,4.393C203.597,153.937,205.562,152.571,205.935,150.518z M199.369,149.329
		c0.286-1.574,1.779-2.628,3.358-2.342c1.577,0.286,2.629,1.801,2.344,3.375c-0.283,1.562-1.8,2.61-3.376,2.325
		C200.117,152.401,199.087,150.891,199.369,149.329z"/>
	<path fill="#7F5026" d="M205.071,150.362c0.285-1.575-0.767-3.089-2.344-3.375c-1.579-0.286-3.072,0.768-3.358,2.342
		c-0.282,1.562,0.747,3.072,2.326,3.358C203.271,152.972,204.788,151.924,205.071,150.362z"/>
	<path fill="#FFFFFF" d="M209.062,247.712c2.43,3.076,6.537,36.851,6.564,59.389c8.943-3.243,17.495-7.307,25.57-12.088
		c-20.496-43.077-32.74-48.823-38.405-51.271c0.021,0.043,0.042,0.082,0.063,0.125C205.841,245.3,208.247,246.681,209.062,247.712z"
		/>
	<path fill="#FFFFFF" d="M188.035,304.882l1.566,8.986c0.244-0.007,0.502-0.012,0.791-0.016c0.024-0.005,0.049-0.01,0.073-0.016
		c6.978-1.235,13.785-2.955,20.397-5.105c0.003-0.002,0.006-0.002,0.009-0.003c-0.263-0.478-0.524-0.952-0.786-1.44
		c-2.261-4.219-6.283-8.375-10.445-12.39C196.632,296.984,192.371,300.302,188.035,304.882z"/>
	<path fill="#FFFFFF" d="M188.021,313.931c0.193-0.021,0.764-0.044,1.58-0.062l-1.566-8.984c-2.797,2.955-5.621,6.436-8.16,10.449
		c2.395-0.254,4.773-0.557,7.133-0.918C186.977,314.07,186.995,314.044,188.021,313.931z"/>
	<path fill="#FFFFFF" d="M210.086,307.289c0.262,0.488,0.523,0.963,0.786,1.44c1.596-0.521,3.183-1.06,4.755-1.629
		c-0.027-22.538-4.135-56.312-6.564-59.388c-0.814-1.032-3.221-2.412-6.207-3.848c3.569,7.393,5.201,18.502,0.929,35.059
		c0,0-10.401-3.961-14.983,0c0,0,16.514,5.25,15.068,13.309c0,0-1.657,0.885-4.229,2.667
		C203.803,298.914,207.825,303.07,210.086,307.289z"/>
	<path fill="#FFFFFF" d="M129.732,241.312c0.55-0.378,1.11-0.766,1.674-1.15c-0.014,0.008-0.026,0.016-0.04,0.022
		c-0.049,0.028-0.094,0.058-0.143,0.084c-0.5,0.294-0.988,0.585-1.47,0.874c-0.112,0.066-0.231,0.136-0.341,0.203
		C129.454,241.376,129.562,241.365,129.732,241.312z"/>
	<path fill="#FFFFFF" d="M129.128,241.516c-3.084,1.878-5.623,3.62-6.49,4.716c1.463-1.027,3.619-2.521,6.029-4.186
		C128.84,241.846,128.992,241.671,129.128,241.516z"/>
	<path fill="#FFFFFF" d="M134.922,277.626c-0.662,2.104-1.364,4.23-2.095,6.367c1.303-0.764,2.725-1.537,4.088-2.205
		c0.958-0.47,1.884-0.965,2.717-1.343c1.517-0.687,2.704-0.888,3.205-1.409c-0.339-0.259-0.703-0.483-1.091-0.67
		c-0.553-0.215-1.152-0.42-1.776-0.594c-0.902-0.199-1.858-0.288-2.827-0.285C136.399,277.492,135.651,277.542,134.922,277.626z"/>
	<path fill="#FFFFFF" d="M129.732,241.312c-0.17,0.055-0.279,0.064-0.32,0.033c-0.095,0.057-0.191,0.113-0.284,0.171
		c-0.136,0.155-0.289,0.33-0.461,0.53C129.018,241.805,129.373,241.56,129.732,241.312z"/>
	<path fill="#FFFFFF" d="M146.016,307.82l-1.347,7.133l-0.01,0.053c2.482,0.31,4.983,0.561,7.502,0.748
		c-1.105-1.631-2.255-3.198-3.423-4.688C147.839,309.938,146.93,308.85,146.016,307.82z"/>
	<path fill="#FFFFFF" d="M131.039,240.748c0.14-0.211,0.281-0.418,0.423-0.621c-0.019,0.012-0.037,0.022-0.056,0.033
		c-0.563,0.387-1.124,0.773-1.674,1.151C130.018,241.224,130.463,241.03,131.039,240.748z"/>
	<path fill="#FFFFFF" d="M129.573,293.412L129.573,293.412h-0.009h-0.01C129.554,293.412,129.565,293.412,129.573,293.412
		L129.573,293.412z"/>
	<path fill="#FFFFFF" d="M132.667,284.229c0.003-0.002,0.006-0.229,0.008-0.229c0.001,0,0.325,0,0.325,0v0.221
		c0,0.007-0.166,0.123-0.169,0.13c-0.009,0.026-0.1,0.11-0.109,0.138c-0.007,0.021-0.055,0.068-0.062,0.09
		c0.019-0.013,0.017-0.012,0.037-0.022c0.003-0.009,0.153-0.011,0.155-0.019c0.007-0.021,0.148,0.053,0.148,0.077
		c0,0.007,0,0.013,0,0.009c0-0.027-0.168,0.146-0.159,0.119c0.002-0.009-0.139,0.26-0.137,0.26h0.027c0,0,0.054-0.361,0.053-0.359
		c0.001-0.002,0.036-0.178,0.066-0.251c-0.031-0.022,0.093-0.081,0.094-0.082c0.003-0.002,0.056-0.183,0.056-0.183v-0.008
		c0-1.916,1.338-4.279,2.029-6.479c-0.251,0.028-0.581,0.06-0.827,0.096c-0.948,2.587-1.856,5.088-2.852,7.707
		C131.78,285.059,132.191,284.578,132.667,284.229z M132.667,284.439v0.008l0,0C132.667,284.447,132.667,284.441,132.667,284.439z"
		/>
	<polygon fill="#FFFFFF" points="132.667,284.439 132.667,284.447 132.667,284.447 	"/>
	<path fill="#FFFFFF" d="M189.622,313.98c0.255-0.044,0.515-0.082,0.771-0.127c-0.287,0.004-0.545,0.009-0.791,0.016L189.622,313.98
		z"/>
	<path fill="#FFFFFF" d="M188.021,313.931c-1.026,0.113-1.045,0.14-1.014,0.482c0.875-0.135,1.744-0.283,2.614-0.434l-0.021-0.111
		C188.785,313.887,188.216,313.908,188.021,313.931z"/>
	<path fill="#FFFFFF" d="M151.598,238.958c-0.121-0.732-0.341-1.594-0.642-2.559c-0.257-0.816-2.01-4.521-4.351-9.296
		c1.203,2.96,2.205,5.718,2.771,7.876C150.162,236.171,150.901,237.503,151.598,238.958z"/>
	
		<linearGradient id="SVGID_2_" gradientUnits="userSpaceOnUse" x1="215.1016" y1="-23.2188" x2="215.1016" y2="57.1" gradientTransform="matrix(1 0 0 -1 -66 251.667)">
		<stop  offset="0" style="stop-color:#EDD3AA"/>
		<stop  offset="1" style="stop-color:#E2C099"/>
	</linearGradient>
	<path fill="url(#SVGID_2_)" d="M151.598,238.958c-0.121-0.732-0.341-1.594-0.642-2.559c-0.257-0.816-2.01-4.521-4.351-9.296
		c1.203,2.96,2.205,5.718,2.771,7.876C150.162,236.171,150.901,237.503,151.598,238.958z"/>
	
		<linearGradient id="SVGID_3_" gradientUnits="userSpaceOnUse" x1="203.5723" y1="44.1616" x2="203.5723" y2="44.1616" gradientTransform="matrix(1 0 0 -1 -66 251.667)">
		<stop  offset="0" style="stop-color:#EDD3AA"/>
		<stop  offset="1" style="stop-color:#E2C099"/>
	</linearGradient>
	<path fill="url(#SVGID_3_)" d="M137.572,207.505"/>
	<path fill="#EDD3AA" d="M137.572,207.505c0.232,0.466,0.498,1.002,0.794,1.603"/>
	
		<linearGradient id="SVGID_4_" gradientUnits="userSpaceOnUse" x1="203.9697" y1="-23.2109" x2="203.9697" y2="57.0989" gradientTransform="matrix(1 0 0 -1 -66 251.667)">
		<stop  offset="0" style="stop-color:#EDD3AA"/>
		<stop  offset="1" style="stop-color:#E2C099"/>
	</linearGradient>
	<path fill="url(#SVGID_4_)" d="M138.366,209.107c0.027-0.039-0.552-1.169-0.794-1.604
		C137.804,207.971,138.07,208.507,138.366,209.107z"/>
	<path fill="#EDD3AA" d="M192.964,207.757c-0.002,0.004-0.005,0.007-0.008,0.011C193.034,207.892,193.118,208.017,192.964,207.757z"
		/>
	
		<linearGradient id="SVGID_5_" gradientUnits="userSpaceOnUse" x1="259.0039" y1="-23.1543" x2="259.0039" y2="57.0869" gradientTransform="matrix(1 0 0 -1 -66 251.667)">
		<stop  offset="0" style="stop-color:#EDD3AA"/>
		<stop  offset="1" style="stop-color:#E2C099"/>
	</linearGradient>
	<path fill="url(#SVGID_5_)" d="M192.964,207.757c-0.002,0.004-0.005,0.007-0.008,0.011
		C193.034,207.892,193.118,208.017,192.964,207.757z"/>
	<path fill="#EDD3AA" d="M192.956,207.768c0.003-0.004,0.006-0.007,0.008-0.011C192.811,207.527,192.88,207.647,192.956,207.768z"/>
	
		<linearGradient id="SVGID_6_" gradientUnits="userSpaceOnUse" x1="258.9189" y1="-23.21" x2="258.9189" y2="57.0971" gradientTransform="matrix(1 0 0 -1 -66 251.667)">
		<stop  offset="0" style="stop-color:#EDD3AA"/>
		<stop  offset="1" style="stop-color:#E2C099"/>
	</linearGradient>
	<path fill="url(#SVGID_6_)" d="M192.956,207.768c0.003-0.004,0.006-0.007,0.008-0.011
		C192.811,207.527,192.88,207.647,192.956,207.768z"/>
	<path fill="#243A85" d="M159.737,272.99c0.074,0.605,0.152,1.244,0.222,1.85c0.003,0.031,0.007,0.16,0.011,0.16
		c0.001,0,0.002,0,0.003,0c0.004,0,0.009,0,0.014,0c0.001,0,0.001,0,0.002,0c0.002,0,0.004,0,0.006,0c3.746,0,7.933,0,12.096,0
		c0.028,0-0.092,0-0.092,0s0-0.057,0-0.058s0-0.002,0-0.002c0-0.001,0.008-0.002,0.021-0.002c-0.012,0-0.021-0.001-0.021-0.002
		s0-0.001,0-0.002c0-0.009,0.196-0.019,0.198-0.026c0.001-0.008,0.052-0.011,0.062-0.01c0.032,0.002,0.117,0.062,0.12,0.07
		c0,0.002-0.19,0.031-0.188,0.031H172l0,0h0.202h0.101l0,0c-0.025,0-0.129-0.136-0.125-0.174c-0.009,0-0.178-0.037-0.178-0.035
		c0-0.002,0-0.002,0-0.004c0-0.047,0.211-0.102,0.216-0.148c0.122-1.219,0.453-2.639,0.593-3.639h-13.312
		C159.578,272,159.659,272.319,159.737,272.99z"/>
	
		<linearGradient id="SVGID_7_" gradientUnits="userSpaceOnUse" x1="232.1523" y1="-23.332" x2="232.1523" y2="57.372" gradientTransform="matrix(1 0 0 -1 -66 251.667)">
		<stop  offset="0" style="stop-color:#EDD3AA"/>
		<stop  offset="1" style="stop-color:#E2C099"/>
	</linearGradient>
	<path fill="url(#SVGID_7_)" d="M159.737,272.99c0.074,0.605,0.152,1.244,0.222,1.85c0.003,0.031,0.007,0.16,0.011,0.16
		c0.001,0,0.002,0,0.003,0c0.004,0,0.009,0,0.014,0c0.001,0,0.001,0,0.002,0c0.002,0,0.004,0,0.006,0c3.746,0,7.933,0,12.096,0
		c0.028,0-0.092,0-0.092,0s0-0.057,0-0.058s0-0.002,0-0.002c0-0.001,0.008-0.002,0.021-0.002c-0.012,0-0.021-0.001-0.021-0.002
		s0-0.001,0-0.002c0-0.009,0.196-0.019,0.198-0.026c0.001-0.008,0.052-0.011,0.062-0.01c0.032,0.002,0.117,0.062,0.12,0.07
		c0,0.002-0.19,0.031-0.188,0.031H172l0,0h0.202h0.101l0,0c-0.025,0-0.129-0.136-0.125-0.174c-0.009,0-0.178-0.037-0.178-0.035
		c0-0.002,0-0.002,0-0.004c0-0.047,0.211-0.102,0.216-0.148c0.122-1.219,0.453-2.639,0.593-3.639h-13.312
		C159.578,272,159.659,272.319,159.737,272.99z"/>
	<path fill="#FFFFFF" d="M184.199,242.212l-0.281-0.291c0.035,0.504,0.105,0.968,0.216,1.39l0.132-0.981
		c-0.025-0.027-0.05-0.115-0.076-0.115h0.01V242.212z"/>
	<path fill="#FFFFFF" d="M172.413,274.934c-0.002-0.013-0.006-0.021-0.009-0.002c0,0.002,0,0.002,0,0.004l0,0l0,0
		c0,0,0.002,0,0.003,0C172.409,274.935,172.411,274.934,172.413,274.934z"/>
	<path fill="#FFFFFF" d="M202.792,243.74c-0.635-0.273-1.19-0.509-1.662-0.748c-0.019-0.011-0.038,0.006-0.056,0.041
		c0.611,0.278,1.205,0.557,1.781,0.834C202.834,243.824,202.812,243.783,202.792,243.74z"/>
	<polygon fill="#FFFFFF" points="188.035,304.778 188.031,304.783 188.035,304.811 	"/>
	<path fill="#FFFFFF" d="M179,278.572v-0.023c0,0,0.189,0.033,0.191,0.033c0.824-0.49,1.8-0.582,2.553-1.582h-2.15L179,278.572z"/>
	<path fill="#FFFFFF" d="M192.312,268.078c0,0.016-0.002,0.028-0.002,0.043c0.002-0.002,0.002-0.002,0.002-0.002
		C192.314,268.106,192.312,268.091,192.312,268.078z"/>
	<path fill="#FFFFFF" d="M153.04,276.89c-0.175-0.059-0.348-0.244-0.519-0.424c-0.078-0.063-0.158-0.125-0.234-0.19l0.105,0.634
		h0.672C153.056,276.903,153.048,276.896,153.04,276.89z"/>
	<polygon fill="#FFFFFF" points="145.385,232.565 145.385,232.565 145.386,232.574 	"/>
	<path fill="#FFFFFF" d="M131.467,240.115c0.013-0.02,0.027-0.035,0.041-0.055c0.021-0.027,0.042-0.057,0.063-0.084
		c0.005-0.006,0.01-0.012,0.014-0.02c-0.074,0.051-0.147,0.103-0.22,0.152c-0.001,0,0.011,0,0.021,0.001
		c0.018,0.001,0.041,0.002,0.06,0.003C131.458,240.115,131.468,240.115,131.467,240.115z"/>
	<path fill="#FFFFFF" d="M145.656,235.664v0.002c0-0.006,0-0.013,0-0.019l-0.001-0.01
		C145.655,235.625,145.656,235.656,145.656,235.664z"/>
	<path fill="#FFFFFF" d="M145.58,233.804l0.002,0.011c-0.046-0.448-0.106-0.874-0.197-1.249l0.001,0.01L145.58,233.804z"/>
	<path fill="#FFFFFF" d="M145.348,232.587c0.022-0.014,0.037-0.021,0.037-0.021c0,0-0.015,0.008-0.038,0.02L145.348,232.587z"/>
	<path fill="#FFFFFF" d="M144.092,233.231l-0.048,0.138c0.548-0.326,0.932-0.568,1.135-0.697
		C144.968,232.779,144.604,232.966,144.092,233.231z"/>
	<path fill="#FFFFFF" d="M129.564,293.412h0.008l0,0l0,0c-0.008,0-0.019,0-0.019,0H129.564z"/>
	<path fill="#FFFFFF" d="M145.344,235.716l0.122,0.611c0.009-0.219,0.023-0.445,0.026-0.654
		C145.48,235.687,145.368,235.701,145.344,235.716z"/>
	<path fill="#FFFFFF" d="M128.481,292.8C128.482,292.8,128.482,292.8,128.481,292.8c0.232,0.144,0.332,0.347,0.737,0.609
		c0.001,0.002-0.218,0.002-0.218,0.002v-0.002c0-0.022,0.239-0.045,0.247-0.066c0-0.002,0.112-0.004,0.113-0.004
		c0.001-0.004,0.057-0.006,0.058-0.008c1.089-2.902,2.173-5.821,3.175-8.729c0.007-0.021,0.029-0.041,0.036-0.062
		c0.009-0.026,0.026-0.055,0.036-0.082c0.002-0.006,0.008-0.232,0.011-0.239l0.003-0.22c0,0-0.001,0-0.002,0
		c-0.002,0-0.005,0.227-0.008,0.229c-0.475,0.35-0.927,0.829-1.356,1.211c-0.056,0.051-0.115,0.15-0.169,0.201
		c-0.898,2.355-1.812,4.74-2.732,7.087c0.021,0.013,0.046,0.042,0.068,0.058C128.479,292.785,128.48,292.8,128.481,292.8
		L128.481,292.8z"/>
	<path fill="#FFFFFF" d="M131.039,240.748"/>
	<path fill="#FFFFFF" d="M128.07,292.552c0,0,0.118,0.068,0.338,0.203c0.921-2.348,1.834-4.705,2.732-7.061
		C129.016,287.632,127.6,289.944,128.07,292.552z"/>
	<g>
		<path fill="#FFFFFF" d="M147.554,246.315l1.132,7.181c-0.016-3.888,0.452-7.092,0.815-9.889
			C148.791,244.46,148.139,245.365,147.554,246.315z"/>
		<path fill="#FFFFFF" stroke="#808080" stroke-linecap="square" stroke-linejoin="bevel" stroke-miterlimit="10" d="
			M160.511,281.155c0.031,0.003,0.063,0.345,0.094,0.345c0,0,0.001,0,0.002,0c-0.123-2-0.253-2.949-0.392-4.258
			c-0.074-0.619-0.15-1.133-0.229-1.82c-0.005-0.039-0.009,0.078-0.014,0.078c-0.001,0-0.002,0-0.003,0c0,0-0.118-0.35-0.119-0.358
			c-0.003-0.043,0.052-0.195,0.048-0.228c-0.07-0.604-0.119-1.261-0.192-1.865c-0.081-0.661-0.127-1.344-0.212-2.006
			c-1.628-12.428-4.111-23.92-7.872-31.811c-0.004-0.025-0.006-0.057-0.01-0.083c-0.692-1.448-1.427-2.851-2.208-4.04
			c0-0.001-0.001-0.004-0.001-0.004c-0.004-0.007-0.015,0.207-0.024,0.199c-0.013-0.008-0.025,0.195-0.032,0.195h0.151v-0.324
			c0-0.014-0.072-0.107-0.076-0.125c-0.049-0.072-0.136-0.18-0.185-0.252c-0.597-0.881-1.237-1.68-1.886-2.367
			c-0.646-0.684-1.33-1.289-2.035-1.811c-0.138-0.103-0.279-0.211-0.419-0.308c0,0-0.003,0.052-0.004,0.069
			c-0.001,0.035-0.004,0.115-0.006,0.115c-0.001,0-0.002,0-0.003,0c0,0-5.925,1.433-11.213,7.183
			c-0.647,0.704-1.531,1.521-2.633,3.007c-4.812,7.229-7.703,19.168-2.708,38.523c0,0,2.169-0.996,6.169-1.479c0,0,0-0.002,0-0.003
			c0-0.035,0.304-0.066,0.55-0.096c0.018-0.002-0.051-0.006-0.033-0.008c0-0.002-0.261-0.002-0.261-0.004
			c0.002-0.006-0.255-0.014-0.255-0.021c0-0.001,0-0.002,0-0.002c1-1.736,0.877-1.736,0.332,0c0.721-0.081,1.518-0.252,2.251-0.253
			c0.971-0.002,1.956,0.176,2.861,0.426c0.624,0.174,1.236,0.691,1.789,0.906c0.44,0.172,0.866-0.18,1.242,0.82h-0.001
			c-0.036,0-0.087-0.201-0.137-0.15c-0.5,0.523-1.688,0.568-3.205,1.253c-0.833,0.378-1.758,0.795-2.717,1.265
			c-1.363,0.668-2.785,1.401-4.088,2.166c-0.004,0.002-0.1,0.148-0.104,0.151c-0.043,0.024-0.224-0.396-0.224,0.258v-0.003
			c0,0,0.022,0.001,0.02,0.004c-0.001,0.001-0.02-0.055-0.02-0.029v-0.041c0,0.072,0.109,0.537,0.109,0.539
			c0-0.002,0.122,0.588,0.122,0.588h-0.027c-0.002,0-0.019-0.517-0.021-0.508c-0.009,0.025,0.011-0.213,0.001-0.186
			c-0.001,0.004-0.002-0.094-0.003-0.1c-0.002-0.006-0.065-0.059-0.066-0.054c-1.006,2.933-2.115,5.792-3.115,8.72
			c0-0.01,0-0.016,0-0.021c0-0.003,0.136,0.131,0.15,0.16c0.007,0.017-0.15-0.134-0.15-0.14c0,0.019,0,0.037,0,0.035
			c0,0.002,0,0.002,0,0.002c0,0.002-0.028,0.002-0.027,0.002c0.462,0.301,1.022,0.688,1.678,1.144
			c3.402,2.366,9.158,6.799,14.854,13.209l0.004,0.021c0.914,1.027,1.827,2.133,2.726,3.279c1.168,1.489,2.32,3.057,3.425,4.688
			c0.013,0.02,0.026,0.037,0.039,0.057c0.063,0.004,0.128,0.01,0.192,0.016c2.004,0.152,4.021,0.51,6.046,0.518
			c0.031,0,0.062,0.158,0.094,0.158c0.003,0,0.007,0,0.01,0c0.007,0,0.013,0,0.02,0c0.001,0,0.001,0,0.002,0
			c0.005,0,0.011,0,0.018,0c1.148,0,2.336-0.168,3.505-0.172c0.114-0.002,0.415-0.142,0.415-0.141v0.312h-0.236
			c0-9-0.418-19.183-1.219-29.543l-0.088-0.453c-0.138-1.855-0.239-3.754-0.415-5.606c-0.033-0.01-0.031,0.041-0.063,0.03
			 M149.264,235.5h-0.002H149.264z M144.353,230.908v0.002l0.275-0.002l-0.031,0.098
			C144.047,231.38,144.353,230.908,144.353,230.908z M158.559,316.171l-0.029-0.187l0.032,0.183L158.559,316.171z"/>
	</g>
	<g>
		<path fill="#FFFFFF" d="M184.58,245.662l-1.133,7.178c0.017-3.885-0.451-7.09-0.814-9.887
			C183.343,243.807,183.995,244.71,184.58,245.662z"/>
		<path fill="#FFFFFF" stroke="#808080" stroke-linecap="square" stroke-linejoin="round" stroke-miterlimit="10" d="
			M171.67,280.169c-0.033,0.011-0.016,0.022-0.049,0.031c-0.176,1.854-0.247,3.711-0.385,5.566l-0.332,0.37
			c-0.801,10.362-1.404,20.624-1.404,29.378c0,0,0,0.001,0,0.002s0,0.018,0,0.018c0-0.002,0.367-0.037,0.482-0.035
			c1.168,0.006,2.422,0,3.572,0c0.006,0,0.012,0,0.018,0c0,0,0,0,0.001,0c0.006,0,0.013,0,0.019,0c0.004,0,0.008,0,0.012,0
			c0.03,0,0.062,0.015,0.094,0.015c2.025-0.009,4.042-0.281,6.046-0.435c0.063-0.004,0.129,0.035,0.192,0.029
			c0.013-0.02,0.028-0.014,0.041-0.031c1.104-1.633,2.26-3.188,3.428-4.68c0.898-1.146,1.818-2.245,2.732-3.273l0.016-0.017
			c5.697-6.409,11.478-10.84,14.881-13.207c0.654-0.454,1.424-1.026,1.431-1.043c0.013-0.028,0.149-0.149,0.149-0.14
			c-1.309-2.928-2.1-5.812-3.105-8.744c-0.002-0.005-0.111,0.021-0.113,0.027c0,0.006,0.025,0.052,0.024,0.047
			c-0.009-0.026,0.037,0.002,0.038,0.003c-0.001-0.003,0.042-0.261,0.042-0.334v0.04c0-0.023-0.042-0.11-0.042-0.112
			c-0.004-0.002,0.039-0.146,0.036-0.146h-0.021c-0.043,0-0.101-0.096-0.145-0.121c-0.004-0.004-0.014-0.088-0.02-0.09
			c-1.302-0.765-2.727-1.482-4.09-2.148c-0.957-0.471-1.885-0.908-2.718-1.285c-1.517-0.686-2.704-0.818-3.206-1.341
			c-0.05-0.054-0.102-0.015-0.137-0.015h-0.001c0.376-1,0.799-0.478,1.239-0.646c0.554-0.215,1.164-0.572,1.787-0.746
			c0.904-0.251,1.887-0.423,2.857-0.42c0.734,0.001,1.473,0.175,2.191,0.255c-0.543-1.735-0.733-1.733,0.267,0.003
			c0,0.002,0,0.002,0,0.002c0,0.004-0.097,0.008-0.14,0.012c-0.064,0.008-0.174,0.014-0.174,0.014
			c0.018,0.002,0.057,0.005,0.072,0.008c0.246,0.027,0.504,0.061,0.745,0.096c0,0.002,0.004,0.002,0.004,0.004
			c3.267,0.481,5.981,1.512,5.981,1.512c4.996-19.355,1.916-31.264-2.896-38.492c-1.102-1.484-1.985-2.039-2.632-2.742
			c-5.288-5.752-11.213-6.855-11.213-6.855c-0.001,0-0.002,0-0.004,0s-0.006-0.405-0.008-0.44c0-0.021-0.006-0.3-0.006-0.299
			c-0.141,0.097-0.285,0.153-0.422,0.256c-0.705,0.522-3.341,3.261-3.938,4.142c-0.048,0.07-0.18,0.172-0.229,0.246
			c-0.006,0.016-0.145,0.104-0.145,0.117V234.5h0.285c-0.006,0-0.02-0.028-0.032-0.022c-0.009,0.008-0.021-0.079-0.024-0.073
			c0,0.002,0,0.025,0,0.026c-0.781,1.188-1.516,2.603-2.209,4.05c-0.004,0.025-0.006,0.061-0.01,0.086
			c-3.76,7.891-6.242,19.377-7.871,31.805c-0.086,0.662-0.133,1.334-0.213,1.994c-0.074,0.605-0.121,1.232-0.191,1.838
			c-0.004,0.031,0.052,0.067,0.047,0.11c0,0.011-0.118,0.188-0.117,0.188c-0.001,0-0.002,0-0.003,0
			c-0.005,0-0.009-0.029-0.015,0.012c-0.078,0.686-0.154,1.254-0.229,1.871c-0.139,1.311-0.27,3.117-0.393,4.117
			c0.002,0,0.002,0,0.002,0c0.031,0,0.062-0.17,0.095-0.172 M182.872,234.5h-0.002H182.872z M187.537,230.35l-0.031-0.097
			l0.275,0.002v-0.002C187.781,230.253,188.087,230.726,187.537,230.35z M173.572,315.514l0.031-0.185l-0.029,0.187L173.572,315.514
			z"/>
	</g>
	<path fill="#FFFFFF" d="M148.687,253.496c0.017,4.047,0.569,8.842,2.316,14.683L148.687,253.496z"/>
	<polygon fill="#EDD3AA" points="245.08,331.708 245.084,331.705 245.08,331.707 	"/>
	<path fill="#E2C099" d="M172.137,184.639c0.018,0.004,0.036,0.01,0.055,0.014c-0.008-0.004-0.015-0.008-0.021-0.012
		C172.159,184.634,172.148,184.646,172.137,184.639z"/>
	<polygon fill="#E2C099" points="174.534,185.259 174.54,185.197 174.521,185.257 174.529,185.259 	"/>
	<path fill="#E2C099" d="M181.393,184.74c0,0-0.029,0.027-0.074,0.069C181.451,184.746,181.488,184.716,181.393,184.74z"/>
	<path fill="#E2C099" d="M169.531,187.878"/>
	<path fill="#FFFFFF" stroke="#808080" stroke-width="0.6546" stroke-miterlimit="10" d="M129.296,293.351"/>
	<path fill="#FFFFFF" stroke="#808080" stroke-width="0.6546" stroke-miterlimit="10" d="M144.047,231.38"/>
	<path fill="#FFFFFF" stroke="#808080" stroke-width="0.6546" stroke-miterlimit="10" d="M129.296,293.685"/>
	<path fill="#FFFFFF" d="M185.688,273.634"/>
	<path fill="#FFFFFF" d="M179.376,278.873"/>
	<path fill="#FFFFFF" stroke="#808080" stroke-width="0.6546" stroke-linecap="square" stroke-miterlimit="10" d="M202.616,292.708"
		/>
	
		<path fill="#FFFFFF" stroke="#808080" stroke-width="0.6546" stroke-linecap="square" stroke-linejoin="round" stroke-miterlimit="10" d="
		M199.412,284.022"/>
	<path fill="#EDD3AA" d="M140.021,142.739"/>
	<path fill="#EDD3AA" d="M138.366,209.107"/>
	<path fill="#EDD3AA" d="M138.432,208.964"/>
	<line fill="none" x1="140.021" y1="142.739" x2="139.774" y2="142.545"/>
	<path fill="#EDD3AA" d="M137.572,207.505"/>
	<path fill="#EDD3AA" d="M137.82,207.757"/>
	<path fill="#EDD3AA" d="M204.561,133.292"/>
	<polygon fill="#7F5026" points="141.954,129.214 141.099,132.385 137.226,133.208 136.935,129.797 	"/>
	
		<linearGradient id="SVGID_8_" gradientUnits="userSpaceOnUse" x1="102.7939" y1="272.3735" x2="85.0493" y2="230.5697" gradientTransform="matrix(-0.9042 0.427 0.427 0.9042 59.993 -39.0763)">
		<stop  offset="0" style="stop-color:#ECD2A9"/>
		<stop  offset="1" style="stop-color:#CEB795"/>
	</linearGradient>
	<path fill="url(#SVGID_8_)" d="M60.081,236.585c5.352,11.332,19.25,18.16,31.125,12.552c11.875-5.607,17.162-19.34,11.812-30.673
		c-5.353-11.332-19.316-15.973-31.192-10.365C72.201,218.094,60.172,217.284,60.081,236.585z"/>
	<linearGradient id="SVGID_9_" gradientUnits="userSpaceOnUse" x1="65.1724" y1="192.7212" x2="90.7857" y2="198.6345">
		<stop  offset="0" style="stop-color:#ECD2A9"/>
		<stop  offset="1" style="stop-color:#CEB795"/>
	</linearGradient>
	<path fill="url(#SVGID_9_)" d="M87.903,207.783c0.917,3.48-1.162,7.046-4.644,7.959l0,0c-3.48,0.918-7.045-1.161-7.96-4.643
		l-7.245-27.526c-0.915-3.479,1.164-7.043,4.645-7.959l0,0c3.48-0.917,7.045,1.162,7.96,4.643L87.903,207.783z"/>
	<linearGradient id="SVGID_10_" gradientUnits="userSpaceOnUse" x1="66.8525" y1="218.8921" x2="84.6753" y2="218.8921">
		<stop  offset="0" style="stop-color:#ECD2A9"/>
		<stop  offset="1" style="stop-color:#CEB795"/>
	</linearGradient>
	<path fill="url(#SVGID_10_)" d="M84.377,224.572c0.952,2.016-0.449,4.674-3.125,5.94l0,0c-2.678,1.264-5.621,0.654-6.573-1.361
		l-7.528-15.938c-0.951-2.015,0.448-4.674,3.125-5.939l0,0c2.678-1.264,5.621-0.655,6.573,1.359L84.377,224.572z"/>
	<path fill="#ECD2A9" d="M76.352,232.695c0.879,1.861-0.325,4.275-2.688,5.392l0,0c-2.364,1.114-4.992,0.513-5.871-1.35
		l-6.95-14.716c-0.879-1.861,0.325-4.273,2.689-5.39l0,0c2.362-1.116,4.99-0.513,5.87,1.348L76.352,232.695z"/>
	<path fill="#ECD2A9" d="M69.314,238.2c0.708,1.502-0.334,3.485-2.33,4.429l0,0c-1.997,0.942-4.19,0.489-4.901-1.015l-5.611-11.882
		c-0.71-1.503,0.334-3.484,2.331-4.427l0,0c1.996-0.943,4.189-0.489,4.899,1.013L69.314,238.2z"/>
	<path fill="#ECD2A9" d="M104.771,223.966c0,0-1.117-10.508-10.461-15.012c-9.343-4.503-18.142-3.765-21.803,0.587
		c-3.662,4.353,4.948,10.828,9.475,9.959c13.228-2.538,15.115,19.214,14.866,22.697C96.595,245.679,106.999,235.317,104.771,223.966
		z"/>
</g>
<g id="Layer_3">
	<path fill="#E2C099" d="M184.23,190.604c-10.387-7.367-18.883-5.793-19.006-5.855c-8.677-4.355-18.631,0.976-18.631,0.976
		c0.017,0.017,29.96,5.007,37.564,5.276c0.011-0.046-0.25-0.655-0.237-0.7C183.919,190.3,184.231,190.605,184.23,190.604z"/>
	<path fill="#E2C099" d="M146.312,186.271c6.453-0.224,17.688,1.766,37.846,4.729c-5.881,4.431-11.645,3.436-19.262,2.271
		C155.663,191.859,151.36,190.586,146.312,186.271z"/>
	<path fill="none" stroke="#C69C6D" stroke-width="0.7797" stroke-linecap="round" stroke-miterlimit="10" d="M183.588,190.917
		c-5.235-1.367-21.107-5.383-36.922-4.844"/>
</g>
<g id="Layer_2" display="none">
	<path display="inline" fill="#FFFFFF" d="M147.173,184.378l37.403-1.364c0,0-7.244,11.868-18.994,11.868
		C153.604,194.882,147.173,184.378,147.173,184.378z"/>
	<path display="inline" fill="#E2C099" d="M184.907,182.876c-13.515-4.664-19.286-2.295-19.417-2.334
		c-9.16-2.691-17.808,2.444-18.446,2.775c-0.075-0.029-0.128-0.053-0.128-0.053c0.02,0.014,0.039,0.056,0.059,0.089
		c0.009,0.017,0.019,0.036,0.026,0.041c0.068,0.047,0.13,0.108,0.208,0.131c7.182,2.116,29.961,0.56,37.367-0.513
		c0.003-0.047-0.023-0.33-0.021-0.376C184.553,182.638,184.909,182.878,184.907,182.876z"/>
	<path display="inline" fill="#E2C099" d="M146.848,183.812c3.206,0,12.762,20.355,38.061-0.936
		c-4.913,5.317-11.442,14.045-19.02,14.254C156.707,197.382,152.809,194.423,146.848,183.812z"/>
</g>
</svg>
